<?xml version="1.0" encoding="utf-8"?>
<!-- Generator: Adobe Illustrator 24.2.3, SVG Export Plug-In . SVG Version: 6.00 Build 0)  -->
<svg version="1.1" id="Layer_1" xmlns="http://www.w3.org/2000/svg" xmlns:xlink="http://www.w3.org/1999/xlink" x="0px" y="0px"
	 viewBox="0 0 249.6 250.1" style="enable-background:new 0 0 249.6 250.1;" xml:space="preserve">
<style type="text/css">
	.st0{fill:#FFFFFF;}
</style>
<path class="st0" d="M124.8,3.1c-67.4,0-122,54.6-122,122s54.6,122,122,122c67.4,0,122-54.6,122-122S192.2,3.1,124.8,3.1z
	 M151.3,147.1l-24.5,23.1c-0.4,0.4-1.3,0.8-2,0.8c-0.7,0-1.3-0.1-2-0.8l-24.5-23.1c-1.1-1.1-1.2-2.9-0.1-4.1c1.1-1.1,3-1.2,4.1-0.1
	l19.7,18.5V81.6c0-1.6,1.3-2.9,2.9-2.9s2.9,1.3,2.9,2.9v79.9l19.7-18.5c1.1-1,3.1-1,4.1,0.1C152.6,144.3,152.5,146.1,151.3,147.1z"
	/>
</svg>
