<svg id="Layer_1" xmlns="http://www.w3.org/2000/svg" viewBox="0 0 376.6 52.6">
  <style>
    .st0{fill:#6E6F72;} .st1{fill:#0099FF;} .st2{fill:#FFFFFF;}
  </style>
  <path class="st0" d="M66.5 43.2V9H72v34.2h-5.5zm13.5 0V7.7l21.7 20.9c.6.6 1.2 1.2 1.8 1.9.6.7 1.2 1.4 1.9 2.3V9h5.1v35.6L88.4 23.3c-.6-.6-1.2-1.2-1.7-1.8-.6-.6-1.1-1.3-1.6-2v23.8H80zm38.5 0V9h19.1v4.7H124v8.5h13.5v4.9H124v16.1h-5.5zm30.3-15.3v15.3h-5.2V9h7.8c2.3 0 4 .1 5.3.4 1.3.3 2.3.8 3.2 1.5 1.1.8 1.9 1.9 2.5 3.2.6 1.3.9 2.7.9 4.3 0 2.7-.7 4.9-2 6.4-1.3 1.6-3.3 2.5-5.9 2.8l11.8 15.6h-6.3l-11.4-15.3h-.7zm.4-4.3h1c2.9 0 4.9-.3 5.9-1s1.4-1.9 1.4-3.6c0-1.9-.5-3.2-1.6-4-1-.8-3-1.2-5.8-1.2h-1v9.8zM193 43.2l-3.9-8.8h-13.6l-4 8.8h-5.8l16.6-35.6 16.5 35.6H193zm-15.4-13.4h9.5l-3.5-7.8c-.2-.5-.4-1.1-.6-1.7-.2-.6-.4-1.4-.7-2.2l-.6 2.1-.6 1.8-3.5 7.8zm42.6-4.1h13.6v1c0 1.1.1 1.9.1 2.2 0 4.8-1.4 8.6-4.1 11.2s-6.6 4-11.7 4c-2.8 0-5.3-.4-7.5-1.2-2.2-.8-4.1-2.1-5.8-3.7-1.6-1.7-2.9-3.6-3.7-5.8-.9-2.2-1.3-4.6-1.3-7.2 0-2.6.4-5 1.3-7.2s2.2-4.1 3.9-5.8c1.7-1.6 3.6-2.9 5.9-3.7 2.2-.9 4.6-1.3 7.2-1.3 2.7 0 5.1.5 7.2 1.5 2.1 1 4 2.5 5.7 4.5l-4.1 3.1c-1.2-1.3-2.5-2.3-3.9-3-1.5-.7-3.1-1-4.9-1-3.7 0-6.7 1.2-9.1 3.6-2.3 2.4-3.5 5.5-3.5 9.3 0 3.9 1.2 7 3.5 9.4 2.3 2.4 5.4 3.6 9.1 3.6 3.2 0 5.7-.7 7.5-2.2 1.8-1.5 2.7-3.5 2.7-6.1v-.5h-8.2v-4.7zm19.6 17.5V9h5.6v34.2h-5.6zm11.6-6.8l4.4-2.1c.4 1.5 1.2 2.7 2.3 3.5 1.1.8 2.6 1.2 4.3 1.2 1.7 0 3-.5 3.9-1.4 1-.9 1.5-2.1 1.5-3.7 0-2-1.7-3.8-5-5.4-.5-.2-.8-.4-1.1-.5-3.8-1.8-6.3-3.5-7.5-5-1.3-1.5-1.9-3.3-1.9-5.5 0-2.8.9-5 2.8-6.8 1.9-1.7 4.4-2.6 7.4-2.6 2.5 0 4.6.5 6.3 1.5 1.7 1 2.9 2.4 3.5 4.2L268 16c-.7-1.1-1.4-1.9-2.3-2.4-.8-.5-1.8-.7-2.8-.7-1.5 0-2.7.4-3.6 1.2-.9.8-1.3 1.8-1.3 3.1 0 2.1 1.9 4 5.8 5.8.3.1.5.3.7.3 3.4 1.6 5.7 3.1 7 4.6 1.3 1.5 1.9 3.3 1.9 5.6 0 3.2-1 5.8-3.1 7.7s-4.8 2.9-8.3 2.9c-2.9 0-5.3-.7-7.2-2-1.6-1.3-2.8-3.2-3.4-5.7zm39.3-22.7v29.5h-5.6V13.7H276V9h23.7v4.7h-9zm13.4 29.5V9h5.6v34.2h-5.6zm41-25.9c-1.6-1.3-3.2-2.3-5-3-1.8-.7-3.6-1-5.5-1-3.7 0-6.8 1.2-9.1 3.6-2.3 2.4-3.5 5.5-3.5 9.3 0 3.7 1.1 6.7 3.4 9.1 2.3 2.4 5.2 3.6 8.6 3.6 2 0 4-.4 5.8-1.1 1.8-.7 3.6-1.8 5.3-3.2V41c-1.5 1.1-3.1 1.9-4.9 2.4-1.8.5-3.7.8-5.7.8-2.6 0-5-.4-7.3-1.3-2.2-.9-4.2-2.1-5.9-3.8-1.7-1.6-2.9-3.6-3.8-5.8-.9-2.2-1.3-4.6-1.3-7.1s.4-4.9 1.3-7.1c.9-2.2 2.2-4.1 3.9-5.8 1.7-1.7 3.6-3 5.8-3.8 2.2-.9 4.6-1.3 7.1-1.3 2 0 3.9.3 5.8.9 1.8.6 3.6 1.5 5.3 2.7l-.3 5.5zm5 19.1l4.4-2.1c.4 1.5 1.2 2.7 2.3 3.5 1.1.8 2.6 1.2 4.3 1.2 1.7 0 3-.5 3.9-1.4 1-.9 1.5-2.1 1.5-3.7 0-2-1.7-3.8-5-5.4-.5-.2-.8-.4-1.1-.5-3.8-1.8-6.3-3.5-7.5-5-1.3-1.5-1.9-3.3-1.9-5.5 0-2.8.9-5 2.8-6.8 1.9-1.7 4.4-2.6 7.4-2.6 2.5 0 4.6.5 6.3 1.5 1.7 1 2.9 2.4 3.5 4.2l-4.3 2.2c-.7-1.1-1.4-1.9-2.3-2.4-.8-.5-1.8-.7-2.8-.7-1.5 0-2.7.4-3.6 1.2-.9.8-1.3 1.8-1.3 3.1 0 2.1 1.9 4 5.8 5.8.3.1.5.3.7.3 3.4 1.6 5.7 3.1 7 4.6 1.3 1.5 1.9 3.3 1.9 5.6 0 3.2-1 5.8-3.1 7.7s-4.8 2.9-8.3 2.9c-2.9 0-5.3-.7-7.2-2-1.6-1.3-2.9-3.2-3.4-5.7zm26.5-25.5c0 1.5-1.2 2.7-2.7 2.7-1.5 0-2.8-1.2-2.8-2.7 0-1.5 1.2-2.7 2.8-2.7 1.5 0 2.7 1.2 2.7 2.7zm-4.9 0c0 1.2.9 2.1 2.1 2.1 1.2 0 2-.9 2-2.1 0-1.2-.9-2.2-2.1-2.2-1.1.1-2 1-2 2.2zm1.7 1.4h-.6V9.6c.2 0 .6-.1 1-.1.5 0 .7.1.9.2.1.1.3.3.3.6s-.2.5-.6.6c.3.1.4.3.5.7.1.4.1.6.2.7h-.7c-.1-.1-.1-.3-.2-.7 0-.3-.2-.4-.6-.4h-.3v1.1zm0-1.5h.3c.3 0 .6-.1.6-.4 0-.2-.2-.4-.6-.4h-.3v.8z"/>
  <path class="st1" d="M0 0h57.4v52.6H0z"/>
  <path class="st2" d="M8.9 8.9h9.2V18H8.9z"/>
  <path class="st2" d="M42.7 8.9H21.4V27H30v-9.2h9.3v16.9H17.8V21.3H8.9v16.6c0 3.2 2.6 5.7 5.7 5.7h33.7V14.7c.1-3.2-2.5-5.8-5.6-5.8z"/>
</svg>
