<svg id="Layer_1" xmlns="http://www.w3.org/2000/svg" viewBox="0 0 132.9 138.5"><style>.st0{fill:#09f;stroke:#09f;stroke-width:1.4133;stroke-miterlimit:10}</style><path class="st0" d="M131.4 58.4c0-.1 0-.1 0 0v-.2-.1-.1-.1s0-.1-.1-.1v-.1s0-.1-.1-.1L119 47.1V22.8c0-.7-.5-1.2-1.2-1.2H89L67 2.9c-.5-.4-1.1-.4-1.6 0l-22 18.8H15.1c-.7 0-1.2.5-1.2 1.2v23.8L1.4 57.5l-.1.1-.1.1v.1s0 .1-.1.1V138c0 .7.5 1.2 1.2 1.2h128c.7 0 1.2-.5 1.2-1.2l-.1-79.6zM119 59.6h8l-8 6.8v-6.8zm7.9-2.4h-8v-6.9l8 6.9zM66.2 5.4l19.1 16.2H47.1L66.2 5.4zM16.4 24.1H116.6v44.4L100.7 82H31.8L16.4 68.9V24.1zm56.7 81.3H59.3L53 100h26.4l-6.3 5.4zm-2.8 2.4l-4 3.4-4-3.4h8zm12-10.2H50.1l-6.3-5.4h44.8l-6.3 5.4zm9.2-7.8H41l-6.3-5.4h63.2l-6.4 5.4zm-77.6-23l-8.4-7.2h8.4v7.2zm0-16.9v7.3H5.5l8.4-7.3zM129 136.8H3.4V61l62 52.7c.5.4 1.1.4 1.6 0L129 61v75.8z"/><path class="st0" d="M27.6 68.6h22.5c.7 0 1.2-.5 1.2-1.2V35.2c0-.7-.5-1.2-1.2-1.2H27.6c-.7 0-1.2.5-1.2 1.2v32.1c0 .7.5 1.3 1.2 1.3zm1.2-32.2h20.1v29.7H28.8V36.4zM61.4 36.4h42.4c.7 0 1.2-.5 1.2-1.2s-.5-1.2-1.2-1.2H61.4c-.7 0-1.2.5-1.2 1.2-.1.7.5 1.2 1.2 1.2zM61.4 44.5h42.4c.7 0 1.2-.5 1.2-1.2s-.5-1.2-1.2-1.2H61.4c-.7 0-1.2.5-1.2 1.2-.1.6.5 1.2 1.2 1.2zM61.4 52.5h42.4c.7 0 1.2-.5 1.2-1.2s-.5-1.2-1.2-1.2H61.4c-.7 0-1.2.5-1.2 1.2-.1.7.5 1.2 1.2 1.2zM61.4 60.5h42.4c.7 0 1.2-.5 1.2-1.2s-.5-1.2-1.2-1.2H61.4c-.7 0-1.2.5-1.2 1.2-.1.7.5 1.2 1.2 1.2zM61.4 68.6h42.4c.7 0 1.2-.5 1.2-1.2s-.5-1.2-1.2-1.2H61.4c-.7 0-1.2.5-1.2 1.2-.1.6.5 1.2 1.2 1.2zM27.6 76.6h76.1c.7 0 1.2-.5 1.2-1.2s-.5-1.2-1.2-1.2H27.6c-.7 0-1.2.5-1.2 1.2 0 .6.5 1.2 1.2 1.2z"/></svg>