<?xml version="1.0" encoding="utf-8"?>
<!-- Generator: Adobe Illustrator 24.2.3, SVG Export Plug-In . SVG Version: 6.00 Build 0)  -->
<svg version="1.1" id="Layer_1" xmlns="http://www.w3.org/2000/svg" xmlns:xlink="http://www.w3.org/1999/xlink" x="0px" y="0px"
	 viewBox="0 0 159.1 172.1" style="enable-background:new 0 0 159.1 172.1;" xml:space="preserve">
<style type="text/css">
	.st0{fill:#FFFFFF;}
	.st1{opacity:0.9;}
</style>
<g>
	<g>
		<polygon class="st0" points="80.5,107.5 59.7,107.5 49.8,132.1 49.8,132.1 31.5,132.1 31.4,132.1 80.5,22 80.5,22.1 80.5,22.1 
			80.5,3.4 80.5,3.4 2,31.4 14,135.2 80.5,172.1 80.5,172.1 		"/>
		<polygon class="st0" points="66.2,92.3 80.5,92.3 80.5,92.3 80.5,57.8 		"/>
	</g>
	<g class="st1">
		<polygon class="st0" points="80.5,107.5 101.4,107.5 111.2,132.1 111.2,132.1 129.5,132.1 129.6,132.1 80.5,22 80.5,22.1 
			80.5,22.1 80.5,3.4 80.5,3.4 159.1,31.4 147.1,135.2 80.5,172.1 80.5,172.1 		"/>
		<polygon class="st0" points="94.9,92.3 80.5,92.3 80.5,92.3 80.5,57.8 		"/>
	</g>
</g>
</svg>
