<?xml version="1.0" encoding="utf-8"?>
<!-- Generator: Adobe Illustrator 24.2.3, SVG Export Plug-In . SVG Version: 6.00 Build 0)  -->
<svg version="1.1" id="Layer_1" xmlns="http://www.w3.org/2000/svg" xmlns:xlink="http://www.w3.org/1999/xlink" x="0px" y="0px"
	 viewBox="0 0 178.4 141.7" style="enable-background:new 0 0 178.4 141.7;" xml:space="preserve">
<style type="text/css">
	.st0{fill:#FFFFFF;}
	.st1{fill:none;}
</style>
<path class="st0" d="M39.1,41.9h-3.5V21.7c0-1.6,0.1-3.5,0.3-5.8h-0.1c-0.3,1.4-0.6,2.3-0.9,2.9L24.7,41.9h-1.7L12.7,19
	c-0.3-0.6-0.6-1.6-0.9-3.1h-0.1c0.1,1.2,0.2,3.2,0.2,5.9v20.1H8.5V11.9h4.6l9.2,21c0.7,1.6,1.1,2.8,1.4,3.6h0.1
	c0.7-1.9,1.2-3.2,1.4-3.7l9.4-20.9h4.4V41.9"/>
<path class="st0" d="M48.8,41.9h-3.4V20.4h3.4V41.9 M49.4,12.8c0,0.6-0.2,1.2-0.7,1.6c-0.4,0.4-1,0.6-1.6,0.6
	c-0.6,0-1.2-0.2-1.6-0.6c-0.4-0.4-0.6-1-0.6-1.6c0-0.6,0.2-1.1,0.6-1.6c0.4-0.4,1-0.7,1.6-0.7c0.6,0,1.2,0.2,1.6,0.6
	C49.2,11.6,49.4,12.1,49.4,12.8"/>
<path class="st0" d="M69.1,40.9c-1.7,1-3.6,1.5-5.9,1.5c-2,0-3.7-0.5-5.3-1.4c-1.6-0.9-2.8-2.2-3.6-3.8c-0.9-1.6-1.3-3.5-1.3-5.6
	c0-3.5,1-6.4,3-8.6c2-2.2,4.7-3.2,8.1-3.2c1.9,0,3.5,0.4,5,1.1v3.5c-1.6-1.1-3.3-1.7-5.1-1.7c-2.2,0-4,0.8-5.4,2.4
	c-1.4,1.6-2.1,3.6-2.1,6.2c0,2.5,0.7,4.5,2,5.9c1.3,1.5,3.1,2.2,5.3,2.2c1.9,0,3.6-0.6,5.3-1.8V40.9"/>
<path class="st0" d="M84.4,23.9c-0.6-0.5-1.5-0.7-2.6-0.7c-1.5,0-2.8,0.7-3.7,2.1c-0.9,1.4-1.4,3.3-1.4,5.6v10.9h-3.4V20.4h3.4v4.4
	h0.1c0.5-1.5,1.2-2.7,2.2-3.5c1-0.9,2.1-1.3,3.4-1.3c0.9,0,1.6,0.1,2,0.3V23.9"/>
<path class="st0" d="M102.4,31.2c0-2.7-0.6-4.8-1.8-6.2c-1.2-1.4-2.9-2.2-5.1-2.2c-2.2,0-3.9,0.7-5.2,2.2c-1.3,1.5-1.9,3.6-1.9,6.2
	c0,2.6,0.6,4.6,1.9,6c1.3,1.4,3,2.2,5.2,2.2c2.2,0,3.9-0.7,5.1-2.1C101.8,35.9,102.4,33.9,102.4,31.2 M105.9,31.1
	c0,3.4-1,6.2-2.9,8.2c-1.9,2.1-4.5,3.1-7.8,3.1c-3.2,0-5.7-1-7.6-3c-1.9-2-2.8-4.7-2.8-8c0-3.5,1-6.4,2.9-8.4c1.9-2.1,4.6-3.1,8-3.1
	c3.2,0,5.7,1,7.5,3C105,24.9,105.9,27.6,105.9,31.1"/>
<path class="st0" d="M121.8,36.2c0,1.9-0.7,3.4-2.1,4.5c-1.4,1.2-3.3,1.7-5.7,1.7c-2,0-3.8-0.4-5.3-1.3v-3.7
	c1.7,1.4,3.5,2.1,5.6,2.1c2.7,0,4.1-1,4.1-3c0-0.8-0.3-1.5-0.8-2c-0.5-0.5-1.7-1.2-3.6-2.1c-1.9-0.8-3.2-1.7-4-2.6
	c-0.8-0.9-1.2-2.2-1.2-3.7c0-1.8,0.7-3.3,2.1-4.4c1.4-1.2,3.2-1.8,5.4-1.8c1.7,0,3.2,0.3,4.6,1v3.5c-1.4-1-3-1.5-4.8-1.5
	c-1.1,0-2,0.3-2.7,0.8c-0.7,0.6-1,1.3-1,2.2c0,1,0.3,1.7,0.8,2.2c0.5,0.5,1.6,1.1,3.3,1.8c2,0.9,3.5,1.8,4.3,2.7
	C121.4,33.5,121.8,34.7,121.8,36.2"/>
<path class="st0" d="M141.7,31.2c0-2.7-0.6-4.8-1.8-6.2c-1.2-1.4-2.9-2.2-5.1-2.2c-2.2,0-3.9,0.7-5.2,2.2c-1.3,1.5-1.9,3.6-1.9,6.2
	c0,2.6,0.6,4.6,1.9,6c1.3,1.4,3,2.2,5.2,2.2c2.2,0,3.9-0.7,5.1-2.1C141.1,35.9,141.7,33.9,141.7,31.2 M145.2,31.1
	c0,3.4-1,6.2-2.9,8.2c-1.9,2.1-4.5,3.1-7.8,3.1c-3.2,0-5.7-1-7.6-3c-1.9-2-2.8-4.7-2.8-8c0-3.5,1-6.4,2.9-8.4c1.9-2.1,4.6-3.1,8-3.1
	c3.2,0,5.7,1,7.5,3C144.3,24.9,145.2,27.6,145.2,31.1"/>
<path class="st0" d="M159.2,13.2c-0.7-0.4-1.4-0.6-2.3-0.6c-2.4,0-3.6,1.5-3.6,4.5v3.3h5v2.9h-5v18.5h-3.4V23.4h-3.6v-2.9h3.6V17
	c0-2.2,0.6-3.9,1.9-5.3c1.3-1.3,2.9-2,4.9-2c1,0,1.9,0.1,2.5,0.4V13.2"/>
<path class="st0" d="M171.7,41.7c-0.8,0.5-1.9,0.7-3.2,0.7c-3.7,0-5.6-2.1-5.6-6.3V23.4h-3.7v-2.9h3.7v-5.2l3.4-1.1v6.4h5.4v2.9
	h-5.4v12.1c0,1.4,0.2,2.5,0.7,3.1c0.5,0.6,1.3,0.9,2.4,0.9c0.8,0,1.6-0.2,2.2-0.7V41.7"/>
<path class="st0" d="M58.4,62.4c0-4-2.3-6-7-6h-4.1v12.3h3.7c2.4,0,4.3-0.5,5.5-1.6C57.8,66,58.4,64.4,58.4,62.4 M62.1,62.2
	c0,2.9-1,5.2-3,7c-2,1.8-4.6,2.7-7.9,2.7h-3.9v11.4h-3.5V53.2H52c3.2,0,5.7,0.8,7.4,2.4C61.2,57.2,62.1,59.4,62.1,62.2"/>
<path class="st0" d="M76.5,72.4l-5.2,0.7c-1.8,0.3-3,0.7-3.7,1.3c-0.7,0.6-1.1,1.6-1.1,2.9c0,1.1,0.4,1.9,1.1,2.6
	c0.8,0.6,1.7,1,2.9,1c1.7,0,3.1-0.6,4.2-1.8c1.1-1.2,1.7-2.7,1.7-4.5V72.4 M79.9,83.3h-3.4v-3.4h-0.1c-1.5,2.6-3.7,3.9-6.6,3.9
	c-2.1,0-3.7-0.6-5-1.7C63.7,81,63,79.5,63,77.6c0-4,2.4-6.3,7.1-7l6.4-0.9c0-3.6-1.5-5.4-4.4-5.4c-2.6,0-4.9,0.9-7,2.6v-3.5
	c0.6-0.5,1.7-0.9,3.2-1.4c1.5-0.4,2.9-0.7,4.1-0.7c5,0,7.5,2.7,7.5,8V83.3"/>
<path class="st0" d="M96.5,65.3c-0.6-0.5-1.5-0.7-2.6-0.7c-1.5,0-2.8,0.7-3.7,2.1c-0.9,1.4-1.4,3.3-1.4,5.6v10.9h-3.4V61.8h3.4v4.4
	h0.1c0.5-1.5,1.2-2.7,2.2-3.5c1-0.9,2.1-1.3,3.4-1.3c0.9,0,1.6,0.1,2,0.3V65.3"/>
<path class="st0" d="M112.5,83.1c-0.8,0.5-1.9,0.7-3.2,0.7c-3.7,0-5.6-2.1-5.6-6.3V64.7H100v-2.9h3.7v-5.2l3.4-1.1v6.3h5.4v2.9h-5.4
	v12.1c0,1.4,0.2,2.5,0.7,3.1c0.5,0.6,1.3,0.9,2.4,0.9c0.8,0,1.6-0.2,2.2-0.7V83.1"/>
<path class="st0" d="M135,83.3h-3.4V71.1c0-4.5-1.7-6.8-5-6.8c-1.7,0-3.1,0.6-4.2,1.9c-1.1,1.3-1.7,2.9-1.7,4.9v12.2h-3.4V61.8h3.4
	v3.6h0.1c1.6-2.7,3.9-4.1,7-4.1c2.4,0,4.1,0.8,5.4,2.3c1.2,1.5,1.8,3.7,1.8,6.5V83.3"/>
<path class="st0" d="M153.9,70.5c0-2-0.5-3.5-1.4-4.6c-0.9-1.1-2.2-1.6-3.9-1.6c-1.6,0-2.9,0.6-4.1,1.7c-1.1,1.1-1.8,2.7-2.1,4.5
	H153.9 M157.4,73.4h-15.1c0.1,2.4,0.7,4.3,1.9,5.5c1.2,1.3,2.9,1.9,5.1,1.9c2.4,0,4.6-0.8,6.6-2.3v3.2c-1.9,1.4-4.3,2.1-7.4,2.1
	c-3.1,0-5.4-1-7.1-3c-1.7-2-2.6-4.7-2.6-8.2c0-2.1,0.4-4.1,1.3-5.8c0.9-1.8,2-3.1,3.5-4.1c1.5-1,3.2-1.4,5-1.4
	c2.8,0,4.9,0.9,6.5,2.7c1.6,1.8,2.3,4.3,2.3,7.6V73.4"/>
<path class="st0" d="M172.5,65.3c-0.6-0.5-1.5-0.7-2.6-0.7c-1.5,0-2.8,0.7-3.7,2.1c-0.9,1.4-1.4,3.3-1.4,5.6v10.9h-3.4V61.8h3.4v4.4
	h0.1c0.5-1.5,1.2-2.7,2.2-3.5c1-0.9,2.1-1.3,3.4-1.3c0.9,0,1.6,0.1,2,0.3V65.3"/>
<path class="st0" d="M99.7,120.7l-0.7,1.9h0c-0.1-0.4-0.3-1-0.6-1.8l-3.5-8.9h-3.5v14.1h2.3v-8.7c0-0.5,0-1.2,0-1.9
	c0-0.4-0.1-0.7-0.1-0.9h0c0.1,0.5,0.2,0.9,0.3,1.2l4.2,10.3h1.6l4.2-10.4c0.1-0.2,0.2-0.7,0.3-1.1h0c-0.1,1-0.1,2-0.1,2.5v9h2.4
	v-14.1h-3.3L99.7,120.7"/>
<polyline class="st0" points="108.9,125.9 111.3,125.9 111.3,118.3 111.3,115.8 108.9,115.8 108.9,120.8 108.9,125.9 "/>
<path class="st0" d="M110.1,111.5c-0.4,0-0.7,0.1-1,0.4c-0.3,0.3-0.4,0.6-0.4,1c0,0.4,0.1,0.7,0.4,1c0.3,0.3,0.6,0.4,1,0.4
	c0.4,0,0.7-0.1,1-0.4c0.3-0.3,0.4-0.6,0.4-1c0-0.4-0.1-0.7-0.4-1C110.9,111.7,110.6,111.5,110.1,111.5"/>
<path class="st0" d="M119.7,115.7c-0.5-0.1-0.9-0.1-1.3-0.1c-1.1,0-2.1,0.2-2.9,0.7c-0.8,0.5-1.5,1.1-1.9,2
	c-0.4,0.8-0.7,1.8-0.7,2.9c0,1,0.2,1.8,0.6,2.6c0.4,0.8,1,1.4,1.8,1.8c0.8,0.4,1.6,0.6,2.6,0.6c1.1,0,2.1-0.2,2.9-0.7l0,0v-2.2
	l-0.1,0.1c-0.3,0.3-0.7,0.5-1.2,0.6c-0.4,0.1-0.8,0.2-1.1,0.2c-0.9,0-1.7-0.3-2.2-0.9c-0.5-0.6-0.8-1.4-0.8-2.4c0-1,0.3-1.9,0.9-2.5
	c0.6-0.6,1.3-0.9,2.2-0.9c0.8,0,1.5,0.3,2.3,0.8l0.1,0.1v-2.3l0,0C120.5,115.9,120.2,115.8,119.7,115.7"/>
<path class="st0" d="M127.5,115.7c-0.6,0-1.1,0.2-1.6,0.6c-0.4,0.3-0.7,0.8-0.9,1.4h0v-1.8h-2.4v10.1h2.4v-5.2
	c0-0.9,0.2-1.6,0.6-2.1c0.4-0.5,0.9-0.8,1.5-0.8c0.2,0,0.5,0,0.7,0.1c0.3,0.1,0.4,0.1,0.6,0.2l0.1,0.1v-2.4l0,0
	C128.2,115.7,127.9,115.7,127.5,115.7"/>
<path class="st0" d="M135.9,123.4c-0.4,0.6-1.1,0.8-2,0.8c-0.9,0-1.6-0.3-2-0.9c-0.5-0.6-0.7-1.4-0.7-2.4c0-1.1,0.2-1.9,0.7-2.5
	c0.5-0.6,1.2-0.9,2-0.9c0.8,0,1.5,0.3,2,0.8c0.5,0.6,0.7,1.4,0.7,2.5C136.5,122,136.3,122.8,135.9,123.4 M134,115.6
	c-1.7,0-3,0.5-3.9,1.5c-0.9,1-1.4,2.3-1.4,4c0,1.6,0.5,2.9,1.4,3.8c0.9,0.9,2.2,1.4,3.7,1.4c1.6,0,2.9-0.5,3.8-1.5
	c0.9-1,1.4-2.3,1.4-3.9c0-1.6-0.4-2.9-1.3-3.8C136.8,116.1,135.5,115.6,134,115.6"/>
<path class="st0" d="M144.3,120c-0.7-0.3-1.2-0.6-1.4-0.7c-0.2-0.2-0.3-0.4-0.3-0.8c0-0.3,0.1-0.5,0.4-0.7c0.2-0.2,0.6-0.3,1-0.3
	c0.4,0,0.8,0.1,1.2,0.2c0.4,0.1,0.8,0.3,1.1,0.5l0.1,0.1V116l0,0c-0.3-0.1-0.6-0.2-1.1-0.3c-0.4-0.1-0.8-0.1-1.2-0.1
	c-1.1,0-2.1,0.3-2.8,0.9c-0.7,0.6-1.1,1.3-1.1,2.2c0,0.5,0.1,0.9,0.2,1.3c0.2,0.4,0.4,0.7,0.7,0.9c0.3,0.3,0.8,0.5,1.5,0.8
	c0.5,0.2,1,0.4,1.2,0.6c0.3,0.1,0.4,0.3,0.5,0.4c0.1,0.1,0.1,0.3,0.1,0.6c0,0.7-0.5,1-1.6,1c-0.4,0-0.8-0.1-1.3-0.2
	c-0.5-0.2-0.9-0.4-1.3-0.7l-0.1-0.1v2.3l0,0c0.3,0.2,0.8,0.3,1.3,0.4c0.5,0.1,1,0.2,1.4,0.2c1.2,0,2.2-0.3,2.9-0.9
	c0.7-0.6,1.1-1.4,1.1-2.3c0-0.7-0.2-1.3-0.6-1.7C145.9,120.8,145.2,120.4,144.3,120"/>
<path class="st0" d="M155.1,123.4c-0.4,0.6-1.1,0.8-2,0.8c-0.9,0-1.6-0.3-2-0.9c-0.5-0.6-0.7-1.4-0.7-2.4c0-1.1,0.2-1.9,0.7-2.5
	c0.5-0.6,1.2-0.9,2-0.9c0.8,0,1.5,0.3,2,0.8c0.5,0.6,0.7,1.4,0.7,2.5C155.8,122,155.6,122.8,155.1,123.4 M153.2,115.6
	c-1.7,0-3,0.5-3.9,1.5c-0.9,1-1.4,2.3-1.4,4c0,1.6,0.5,2.9,1.4,3.8c0.9,0.9,2.2,1.4,3.7,1.4c1.6,0,2.9-0.5,3.8-1.5
	c0.9-1,1.4-2.3,1.4-3.9c0-1.6-0.4-2.9-1.3-3.8C156,116.1,154.8,115.6,153.2,115.6"/>
<path class="st0" d="M170.9,117.8v-1.9h-2.4v-3l-0.1,0l-2.3,0.7l0,0v2.3h-3.6v-1.3c0-0.6,0.1-1,0.4-1.3c0.3-0.3,0.6-0.5,1.1-0.5
	c0.3,0,0.7,0.1,1,0.2l0.1,0v-2l0,0c-0.3-0.1-0.8-0.2-1.3-0.2c-0.7,0-1.3,0.2-1.9,0.5c-0.6,0.3-1,0.7-1.3,1.3
	c-0.3,0.6-0.5,1.2-0.5,1.9v1.4h-1.7v1.9h1.7v8.2h2.4v-8.2h3.6v5.2c0,2.1,1,3.2,3,3.2c0.3,0,0.7,0,1-0.1c0.4-0.1,0.6-0.2,0.7-0.2l0,0
	v-2l-0.1,0.1c-0.1,0.1-0.3,0.2-0.5,0.2c-0.2,0.1-0.4,0.1-0.5,0.1c-0.5,0-0.8-0.1-1-0.4c-0.2-0.3-0.3-0.7-0.3-1.3v-4.8H170.9"/>
<polyline class="st0" points="72,118.3 60.9,118.3 60.9,107.1 72,107.1 72,118.3 "/>
<polyline class="st0" points="84.4,118.3 73.2,118.3 73.2,107.1 84.4,107.1 84.4,118.3 "/>
<polyline class="st0" points="72,130.7 60.9,130.7 60.9,119.5 72,119.5 72,130.7 "/>
<polyline class="st0" points="84.4,130.7 73.2,130.7 73.2,119.5 84.4,119.5 84.4,130.7 "/>
<line class="st1" x1="-7975.5" y1="187.1" x2="8407.5" y2="187.1"/>
</svg>
