<?xml version="1.0" encoding="utf-8"?>
<!-- Generator: Adobe Illustrator 24.2.3, SVG Export Plug-In . SVG Version: 6.00 Build 0)  -->
<svg version="1.1" id="_x39_bb7cb5a-053e-4e46-a6c7-edf23260fa1a"
	 xmlns="http://www.w3.org/2000/svg" xmlns:xlink="http://www.w3.org/1999/xlink" x="0px" y="0px" viewBox="0 0 484.2 171.3"
	 style="enable-background:new 0 0 484.2 171.3;" xml:space="preserve">
<style type="text/css">
	.st0{fill:#FFFFFF;}
</style>
<g>
	<path class="st0" d="M70.7,27h-8.1l-0.9,22.2l0.7,0.1L70.7,27z"/>
	<path class="st0" d="M83.9,55.4l16.9-12.3V28L80.9,55.4H83.9z"/>
	<path class="st0" d="M74.4,54.4L99.8,27H86.3L73.8,54L74.4,54.4z M68.7,51.3L83.6,27h-9.8L68,51L68.7,51.3z"/>
	<path class="st0" d="M100.8,55.4v-8.6l-9.3,8.6H100.8z"/>
	<path class="st0" d="M55.6,48.6H56L59.4,27h-7.5l3.4,21.7H55.6z M49.5,49.2L48.6,27h-8.1l8.2,22.3L49.5,49.2z"/>
	<path class="st0" d="M30.4,55.4L10.5,28v15.1l16.9,12.3H30.4z"/>
	<path class="st0" d="M37.5,54L25,27H11.5l25.4,27.4L37.5,54z M43.2,51l-5.8-24h-9.8l14.9,24.3L43.2,51z"/>
	<path class="st0" d="M10.5,46.8v8.6h9.3L10.5,46.8z"/>
	<path class="st0" d="M4.9,21.5v75.7c0.3,12.7,4.4,23.6,12.3,32.4c14,15.8,35.2,19.7,37.6,20.1l0.3,0.1l0.5,0.1l0.5-0.1
		c1-0.1,23.3-3.6,38-20.1c3.3-3.7,6-7.9,8-12.4c2.7-6.3,4.2-13.1,4.2-20V21.5H4.9z M103.7,97.1c-0.1,6.5-1.4,13-4,19
		c-1.9,4.3-4.4,8.3-7.6,11.8c-14.1,15.9-35.6,19.2-36.5,19.3h-0.5c-2.3-0.4-22.7-4.1-36.1-19.2c-7.5-8.5-11.4-18.8-11.7-30.9V24
		h96.2V97.1z"/>
	<path class="st0" d="M28.6,88.9v2.7h2.7v-2.5l0-0.2H28.6z"/>
	<path class="st0" d="M23.5,87v0.2h7.7v-8.8l-0.3,0.1c-0.5,0.2-1.1,0.3-1.7,0.4h-0.4c-1.3,0-2.6-0.3-3.8-0.8l-0.4-0.2
		c-0.4-0.2-0.8-0.3-1.3-0.3c-1.8,0-3.2,1.4-3.2,3.2l0,0c0,1.1,0.2,1.4,1.5,2.9C22.4,84.6,23.1,85.7,23.5,87z"/>
	<path class="st0" d="M38.2,88.9h2.7v2.7h-2.7V88.9z"/>
	<path class="st0" d="M10.5,97.2c0.3,11.3,3.9,21,10.9,28.8c11.1,12.5,27.5,16.8,32.8,17.9V58.3H10.5V97.2z M24.2,107.4h-4.3V107
		l0.8-0.1c0.5-0.1,0.5-0.2,0.5-1.5v-3.3c0-1.5-0.1-1.6-0.3-1.6c-0.1,0-0.3,0-0.4,0.1l-0.8,0.1l-0.1-0.3c0.5-0.2,2.8-1,3-1.1l0.2,0.1
		v6c0,1.3,0,1.5,0.5,1.5l0.8,0.1L24.2,107.4z M43.7,95.7v0.8H20.9v-0.8H43.7z M20.9,94.9v-0.8h22.8v0.8H20.9z M29.3,104.2
		c-0.6,1.1-1,2.2-1.2,3.4l-0.1,0.1c-0.5-0.2-0.9-0.5-1.3-0.9c0.1-0.9,1.7-2.6,2.8-4.3c0.4-0.6,0.7-1.2,0.8-1.8h-2.4
		c-1.4,0-1.3,0-1.7,1l-0.3-0.1c0-0.7,0.2-1.4,0.5-2.1h5l0.1,0.1C31.3,100.9,30.7,101.5,29.3,104.2z M35.4,107.5
		c-1.5,0-2.8-1.1-2.8-3.4c0-3.4,2.2-4.9,4.3-4.9c0.4,0,0.8,0.1,1.2,0.2L38,99.9c-0.3-0.1-0.5-0.1-0.8-0.1c-1.7,0-3,1.4-3,4.2
		c0,1.8,0.5,3.1,1.6,3.1c0.8,0,1.1-0.8,1.1-1.6c0-1.2-0.7-2.2-1.7-2.2h-0.4V103c0.4-0.3,0.9-0.5,1.4-0.5c1.1,0,2,1,2,2.1
		c0.2,1.5-0.9,2.8-2.4,3C35.7,107.5,35.6,107.6,35.4,107.5L35.4,107.5z M42.3,107.5c-1.5,0-2.8-1.1-2.8-3.4c0-3.4,2.2-4.9,4.3-4.9
		c0.4,0,0.8,0.1,1.2,0.2l-0.1,0.3c-0.3-0.1-0.5-0.1-0.8-0.1c-1.7,0-3,1.4-3,4.2c0,1.8,0.5,3.1,1.6,3.1c0.8,0,1.1-0.8,1.1-1.6
		c0-1.2-0.7-2.3-1.7-2.3h-0.3l0-0.2c0.8-0.8,2.1-0.7,2.8,0.1c0.4,0.4,0.6,0.9,0.5,1.5c0.2,1.5-0.9,2.8-2.4,3
		C42.6,107.5,42.5,107.6,42.3,107.5L42.3,107.5z M32.3,69.7c1.1,0,2,0.9,2,2c0,1.1-0.9,2-2,2c-1.1,0-2-0.9-2-2
		C30.3,70.6,31.2,69.8,32.3,69.7L32.3,69.7z M23.3,75.1c0.8,0,1.6,0.2,2.4,0.5l0.3,0.2c0.9,0.4,1.8,0.6,2.8,0.6h0.3
		c1.1-0.1,2.1-0.7,2.5-1.7H33c0.5,1,1.5,1.6,2.6,1.7h0.3c0.9,0,1.8-0.2,2.6-0.5c0.2-0.1,0.4-0.2,0.7-0.3c2.9-1.2,6.2,0.2,7.4,3
		c0.3,0.7,0.4,1.4,0.4,2.2c-0.1,1.7-0.9,3.3-2.1,4.4l-0.1,0.1c-0.9,1-1.5,2.4-1.6,3.8v0.7c0,0.7,0.2,1.4,0.5,2v1.4H20.9v-1.3
		c0.3-0.8,0.5-1.6,0.5-2.5c0-0.3,0-0.6-0.1-0.9c-0.2-1.2-0.7-2.3-1.5-3.2l-0.1-0.1c-1.2-1.2-2-2.7-2.1-4.4
		C17.6,77.6,20.2,75.1,23.3,75.1L23.3,75.1z"/>
	<path class="st0" d="M23.7,88.9h2.7v2.7h-2.7V88.9z"/>
	<path class="st0" d="M41.1,87c0.4-1.3,1-2.4,1.9-3.4c0.2-0.2,1.5-1.9,1.5-2.9c0-1.8-1.4-3.2-3.2-3.2c-0.4,0-0.9,0.1-1.3,0.2
		l-0.4,0.2L39.4,78c-1.1,0.5-2.3,0.7-3.6,0.7h-0.5c-0.6,0-1.1-0.2-1.7-0.4l-0.3-0.1v8.9h7.6L41.1,87z"/>
	<path class="st0" d="M33.4,88.9h2.7v2.7h-2.7V88.9z"/>
	<path class="st0" d="M71.2,92.1c0.5,0,0.9-0.1,1.4-0.2c0.4-0.1,0.8-0.2,1.3-0.2c0.8,0,1.6,0.2,2.4,0.5v-1c-0.8-0.3-1.6-0.4-2.4-0.4
		c-0.5,0-1,0.1-1.4,0.2c-0.4,0.1-0.8,0.2-1.2,0.2c-0.8,0-1.5,0-2.2-0.2v1C69.7,92.1,70.4,92.1,71.2,92.1z M71.2,89.5
		c0.5,0,0.9-0.1,1.4-0.2c0.4-0.1,0.8-0.2,1.3-0.2c0.8,0,1.6,0.2,2.4,0.5v-1c-0.8-0.3-1.6-0.4-2.4-0.4c-0.5,0-1,0.1-1.4,0.2
		c-0.4,0.1-0.8,0.2-1.2,0.2c-0.8,0-1.5,0-2.2-0.2v1C69.7,89.5,70.4,89.5,71.2,89.5z M71.2,86.9c0.5,0,0.9-0.1,1.4-0.2
		c0.4-0.1,0.8-0.2,1.2-0.2c0.8,0,1.6,0.2,2.4,0.5v-1c-0.8-0.3-1.6-0.4-2.4-0.4c-0.5,0-1,0.1-1.4,0.2c-0.4,0.1-0.8,0.2-1.2,0.2
		c-0.7,0-1.5,0-2.2-0.2v1C69.7,86.9,70.4,86.9,71.2,86.9z M71.2,81.7c0.5,0,0.9-0.1,1.4-0.2c0.4-0.1,0.8-0.2,1.3-0.2
		c0.8,0,1.6,0.2,2.4,0.5v-1c-0.8-0.3-1.6-0.4-2.4-0.4c-0.5,0-1,0.1-1.4,0.2c-0.4,0.1-0.8,0.2-1.2,0.2c-0.8,0-1.5,0-2.2-0.2v1
		C69.7,81.7,70.4,81.8,71.2,81.7z M71.2,84.3c0.5,0,0.9-0.1,1.4-0.2c0.4-0.1,0.8-0.2,1.3-0.2c0.8,0,1.6,0.2,2.4,0.5v-1
		c-0.8-0.3-1.6-0.4-2.4-0.4c-0.5,0-1,0.1-1.4,0.2c-0.4,0.1-0.8,0.2-1.2,0.2c-0.8,0-1.5,0-2.2-0.2v1C69.7,84.3,70.4,84.4,71.2,84.3z
		 M71.2,79.1c0.5,0,0.9-0.1,1.4-0.2c0.4-0.1,0.8-0.2,1.2-0.2c0.8,0,1.6,0.2,2.4,0.5v-1c-0.8-0.3-1.6-0.4-2.4-0.4
		c-0.5,0-1,0.1-1.4,0.2c-0.4,0.1-0.8,0.2-1.2,0.2c-0.7,0.1-1.5,0-2.2-0.1v1C69.7,79.1,70.4,79.2,71.2,79.1z"/>
	<path class="st0" d="M71.5,95.6c2.1-0.5,4.3-0.2,6.2,0.8v-0.8l-0.2-0.1c-1.1-0.7-2.3-1-3.6-1h-0.7c-0.5,0-1.1,0.1-1.6,0.2
		c-1.6,0.2-3.3,0.2-4.9-0.2l-0.3-0.1V76.9l-0.8-0.2V95C67.5,95.6,69.5,95.8,71.5,95.6z"/>
	<path class="st0" d="M71.5,97.3c2.1-0.5,4.3-0.2,6.2,0.8v-0.8l-0.1-0.1h-0.1c-1.8-1-3.9-1.2-5.8-0.8c-2.2,0.3-4.5,0.1-6.6-0.7
		l-0.3-0.1V77.4l-0.9-0.3v19.1C67,97.3,69.5,97.7,71.5,97.3z M85.4,89.3c0.5,0.1,0.9,0.2,1.4,0.2c0.8,0.1,1.5,0,2.3-0.1v-1
		c-0.7,0.2-1.5,0.2-2.2,0.2c-0.4,0-0.8-0.1-1.2-0.2c-0.5-0.1-1-0.2-1.4-0.2c-0.8,0-1.6,0.1-2.4,0.4v1c0.7-0.3,1.6-0.5,2.4-0.5
		C84.6,89.1,85,89.1,85.4,89.3z"/>
	<path class="st0" d="M86.5,95.6c2,0.3,4,0.1,5.9-0.6V76.6l-0.8,0.2v17.5l-0.3,0.1c-1.6,0.4-3.3,0.5-4.9,0.2c-0.5-0.1-1-0.2-1.6-0.2
		h-0.7c-1.3,0-2.5,0.3-3.6,1l-0.2,0.1v0.8C82.2,95.4,84.4,95.1,86.5,95.6z"/>
	<path class="st0" d="M85.4,86.7c0.5,0.1,0.9,0.2,1.4,0.2c0.8,0.1,1.5,0,2.3-0.1v-1c-0.7,0.2-1.5,0.2-2.2,0.2
		c-0.4,0-0.8-0.1-1.2-0.2c-0.5-0.1-1-0.2-1.4-0.2c-0.8,0-1.6,0.1-2.4,0.4v1c0.7-0.3,1.6-0.5,2.4-0.5C84.6,86.5,85,86.5,85.4,86.7z"
		/>
	<path class="st0" d="M57.1,144c5.2-1.1,21.7-5.4,32.8-17.9c7-7.8,10.6-17.5,10.9-28.8V58.3H57.1V144z M72.6,105.2l-1.7-0.9
		l-1.7,0.9l0.3-1.9l-1.4-1.3l1.9-0.3l0.8-1.7l0.8,1.7l1.9,0.3l-1.4,1.3L72.6,105.2z M88.7,105.2l-1.7-0.9l-1.7,0.9l0.3-1.9l-1.4-1.3
		l1.9-0.3l0.8-1.7l0.8,1.7l1.9,0.3l-1.4,1.3L88.7,105.2z M79.5,92.8V76.7c0.4-0.3,0.9-0.6,1.4-0.8c1.1-0.5,2.2-0.7,3.4-0.7
		c0.7,0,1.5,0.1,2.2,0.2c0.3,0.1,0.7,0.1,1,0.1c1.2,0.1,2.4-0.1,3.6-0.3l0.5-0.1v1c0.4-0.1,0.7-0.2,1.1-0.3l0.5-0.2v1l1.1-0.4
		l0.6-0.2v20.7l-0.3,0.1c-3.3,1.2-6.1,1.7-8.2,1.3c-1.9-0.5-4-0.2-5.7,0.7h-1.2L79.5,92.8z M79.8,104l1.9,0.3l-1.4,1.3l0.3,1.9
		l-1.7-0.9l-1.7,0.9l0.3-1.9l-1.4-1.3l1.9-0.3l0.8-1.7L79.8,104z M63.1,75.9l0.5,0.2l1.1,0.4v-1l0.5,0.2c0.4,0.1,0.8,0.2,1.1,0.3v-1
		l0.5,0.2c1.2,0.3,2.4,0.4,3.6,0.4c0.3,0,0.7-0.1,1-0.1c0.7-0.1,1.5-0.2,2.2-0.2c1.2,0,2.3,0.2,3.4,0.7c0.5,0.2,1,0.5,1.4,0.8v22.1
		h-1.2c-1.8-0.9-3.8-1.2-5.7-0.7c-2.2,0.4-4.9,0-8.2-1.3l-0.3-0.1L63.1,75.9z"/>
	<path class="st0" d="M86.5,97.3c2,0.4,4.5,0,7.5-1.1V77.1l-0.8,0.3v18.2l-0.3,0.1c-2.1,0.8-4.4,1-6.6,0.7c-2-0.5-4.1-0.2-5.8,0.8
		l-0.1,0.1l-0.1,0.1v0.8C82.2,97.1,84.4,96.8,86.5,97.3z"/>
	<path class="st0" d="M85.4,91.8c0.5,0.1,0.9,0.2,1.4,0.2c0.8,0.1,1.5,0,2.3-0.1v-1c-0.7,0.2-1.5,0.2-2.2,0.2
		c-0.4,0-0.8-0.1-1.2-0.2c-0.5-0.1-1-0.2-1.4-0.2c-0.8,0-1.6,0.1-2.4,0.4v1c0.7-0.3,1.6-0.5,2.4-0.5C84.6,91.7,85,91.7,85.4,91.8z
		 M85.4,81.5c0.5,0.1,0.9,0.2,1.4,0.2c0.8,0.1,1.5,0,2.3-0.1v-1c-0.7,0.2-1.5,0.2-2.2,0.2c-0.4,0-0.8-0.1-1.2-0.2
		c-0.5-0.1-1-0.2-1.4-0.2c-0.8,0-1.6,0.1-2.4,0.4v1c0.7-0.3,1.6-0.5,2.4-0.5C84.6,81.3,85,81.4,85.4,81.5z M85.4,78.9
		c0.5,0.1,0.9,0.2,1.4,0.2c0.8,0.1,1.5,0,2.3-0.1v-1c-0.7,0.2-1.5,0.2-2.2,0.2c-0.4,0-0.8-0.1-1.2-0.2c-0.5-0.1-1-0.2-1.4-0.2
		c-0.8,0-1.6,0.1-2.4,0.4v1c0.7-0.3,1.6-0.5,2.4-0.5C84.6,78.8,85,78.8,85.4,78.9z M85.4,84.1c0.5,0.1,0.9,0.2,1.4,0.2
		c0.8,0.1,1.5,0,2.3-0.1v-1c-0.7,0.2-1.5,0.2-2.2,0.2c-0.4,0-0.8-0.1-1.2-0.2c-0.5-0.1-1-0.2-1.4-0.2c-0.8,0-1.6,0.1-2.4,0.4v1
		c0.7-0.3,1.6-0.5,2.4-0.5C84.6,83.9,85,84,85.4,84.1z M234,106l2.4-0.7v-41c0-9.9,0-10.3,3.2-10.7l2.9-0.2v-1.8h-19.8v1.8l2.9,0.2
		c3.2,0.3,3.2,0.7,3.2,10.7v33c-3.7,4.2-9.1,6.5-14.7,6.5c-12.6,0-14.6-7.7-14.6-19.4V64.3c0-9.9,0-10.3,3.2-10.7l2.9-0.2v-1.8H186
		v1.8l2.9,0.2c3.2,0.3,3.2,0.7,3.2,10.7v21.5c0,11.1,1.4,20.7,18.2,20.7c10.8,0,17.6-5.1,18.7-5.1s1.9,1.1,3,2.3L234,106z
		 M255.8,105.3h22.5v-1.8l-2.9-0.2c-4.5-0.3-4.5-0.7-4.5-10.7V53.9h4.2c11.5,0,11.6,1.2,13.4,10.7h2c0-0.3-0.4-11.1-0.7-12.9h-45.3
		c-0.3,1.8-0.7,12.6-0.7,12.9h2c1.8-9.4,1.9-10.7,13.4-10.7h4.2v38.7c0,9.9,0,10.3-4.5,10.7l-3,0.2L255.8,105.3z M340.5,94.6
		c0-7.9,0-8.3,1.5-8.7l2.9-0.2v-1.8h-20.6v1.8l2.9,0.2c5.6,0.3,5.6,0.7,5.6,10.7v6.1c-3.1,0.7-6.3,1.1-9.5,1.1
		c-15.9,0-23-12.9-23-26.7c0-15.2,8.4-24,21.7-24c13.9,0,15,9.9,15.8,13.2l2.2-0.5c-0.4-4-0.8-8.6-1.3-12c-2.1-1.3-8.3-3.3-16.6-3.3
		c-12.9,0-30.3,6.5-30.3,28.2c0,20.7,14.6,27.9,31,27.9c6.1-0.1,12.1-1.2,17.8-3.3C340.7,103.2,340.5,97,340.5,94.6 M350,105.3h37.2
		c1.1-4.4,2-9,2.7-13.5l-2-0.3c-1.6,6.7-2.4,11.6-15.4,11.6c-3-0.1-5.9-0.4-8.8-1.1V78.5h7.2c6.3,0,7.8,0.1,8.3,3.4l0.4,2.8h2.1
		V70.1h-2.1l-0.4,2.8c-0.5,3.4-2,3.4-8.3,3.4h-7.2V53.9h6.7c11.5,0,11.6,1.2,13.4,9.9l2-0.3c0-0.7-0.4-10.1-0.7-11.9h-35v1.8
		l2.9,0.2c3.2,0.3,3.2,0.7,3.2,10.7v28.3c0,9.9,0,10.3-3.2,10.7l-2.9,0.2L350,105.3z M409.9,54.9c1.6-0.4,3.3-0.6,5-0.7
		c6.3,0,12.6,2.9,12.6,12.4c0,9.2-6.2,12.8-13,12.8h-4.6V54.9z M396.3,105.3h19.6v-1.8l-2.9-0.2c-3.1-0.3-3.1-0.7-3.1-10.7V81.8h3
		c1.7,0,3.7,0,5,1.1c1,0.9,2.9,4,5,8l3.4,6.3c2.4,4.5,6.2,8.1,11.5,8.1h6.3v-1.8c-1.4,0.1-2.8-0.2-4.1-0.8c-2-1.1-5.6-5.9-9-12.1
		c-2.2-3.9-4.9-9.1-6.1-11.4c4.5-2.1,11.2-6.6,11.2-14.2c0-12.4-10.9-13.5-18.6-13.5h-21.2v1.8l2.9,0.2c3.2,0.3,3.2,0.7,3.2,10.7
		v28.3c0,9.9,0,10.3-3.2,10.7l-2.9,0.2L396.3,105.3z M461.8,71.9c-4.4-2.6-7.9-5.2-7.9-10c-0.1-4.8,3.6-8.7,8.4-8.9
		c0.2,0,0.3,0,0.5,0c9.2,0,10.5,7.1,11.3,11.1h2c-0.2-2.4-0.4-8.3-0.8-11.2c-3.5-1.8-7.3-2.7-11.2-2.6c-8.6,0-16.9,4.2-16.9,14.1
		c0,6.1,4.3,11.1,8.9,13.7l5.2,2.8c6.3,2.8,11.3,6.9,11.3,12.8c0,6.3-4.1,10-9.8,10c-11.1,0-14.1-9.7-15-15.5l-2.6,0.7
		c0.9,5.6,1.8,11.2,2.6,14.3c2.5,1.5,6.4,3.2,12.8,3.2c8.6,0,18.8-4.2,18.8-15.2c0-9.8-6.7-13.2-13.1-16.8L461.8,71.9z"/>
	<path class="st0" d="M146.6,74.3c2.5,0.1,5.2-0.1,7.6-0.1c9.6,0,15.5-5.2,15.5-14.8c0-10.5-6-16.9-16.6-16.9
		c-2.2,0.1-4.4,0.4-6.5,0.8L146.6,74.3z M167.3,74.3c0.9,5.2,8.1,18.4,10.9,23.3c6.2,11.5,22.2,34.7,34.1,34h1.4v1.9l-2.1,0.1
		c-16.9,0.7-31.9-18.1-40.7-33.2c-3.6-6.1-7-13.2-10.1-19.6c-0.6-1.4-1.6-2.6-2.9-3.4c-1.7-0.9-3.8-0.9-5.6-0.9h-5.7V90
		c0,2.5-0.2,8.7,0.5,11.1c0.5,1.9,1.7,2.2,3.6,2.4l3.3,0.3v1.5h-23v-1.5l3.3-0.3c2-0.2,3.1-0.4,3.7-2.4c0.7-2.4,0.5-8.6,0.5-11.1
		V55.2c0-2.5,0.2-8.7-0.5-11.1c-0.6-1.9-1.7-2.2-3.7-2.4l-3.3-0.3v-1.5h15.7c13.8,0,32.5-2,32.5,17.5c0,7.9-5.4,13-11.9,16.2
		C167.2,73.8,167.3,74.1,167.3,74.3"/>
</g>
</svg>
