<?xml version="1.0" encoding="UTF-8"?>
<svg enable-background="new 0 0 393.4 171.3" version="1.1" viewBox="0 0 393.4 171.3" xml:space="preserve" xmlns="http://www.w3.org/2000/svg">
<style type="text/css">
	.st0{fill:#FFFFFF;}
	.st1{fill:#8A2432;}
</style>
				<path class="st0" d="m52.7 152.7l-0.1-0.4s32-23.3 36.5-26.6l0.5-0.3c1.2-0.8 4.3-3.4 4.3-6.6 0-2.5-1.8-5.7-8.5-9.2l-0.4-0.2 0.2-3.7 0.8 0.2c14.1 4.1 18.9 9.8 18.9 15.6-0.1 9.4-12 17.4-12 17.5-18.6 13.8-39.9 29.3-39.9 29.3l-0.4 0.3v-0.5l-0.2-13.9 0.3-1.5zm18.9-12.7c-9.3 6.8-18.5 13.5-18.6 13.5l-0.4 0.3v13.2c1.8-1.3 6.7-4.9 12.6-9.2 7.6-5.6 17.6-12.9 26.9-19.8 0 0 0.1 0 0.1-0.1 0.1-0.1 0.2-0.2 0.4-0.3 0.3-0.2 0.8-0.6 1.3-1 1.1-0.9 2.5-2.2 4-3.7 2.9-3.1 5.7-7.3 5.7-11.4 0-4.8-3.8-10.1-17.2-14.2l-0.1 1.2c6.6 3.5 8.9 7 8.9 10.1 0 3.5-2.8 6.1-4.3 7.2l-0.5 0.4c-0.2 0.3-9.5 7.1-18.8 13.8z"/>
				<path class="st0" d="m11.6 124.2v-27c0-2.2 0.1-6.1 0.1-8.2-3.3-1.1-9.2-5-11.7-9v51l52.7 37.6v-16.3l-41.1-28.1z"/>
		<path class="st0" d="m48.7 115.8v-2.4c0-0.6-0.5-1.1-1.2-1.1s-1.2 0.5-1.2 1.1v2.4c0 0.6 0.5 1.1 1.2 1.1 0.6 0 1.2-0.5 1.2-1.1zm-1.2-4.1c0.5 0 0.9-0.4 0.9-0.8v-1.6c0-0.5-0.4-0.8-0.9-0.8s-0.9 0.4-0.9 0.8v1.6c0 0.4 0.4 0.8 0.9 0.8zm5.2-11.6h0.2c-10.7-1.5-26.9-6-37.7-10v33.2l37.4 24.8 37.6-26.3v-14.4c-8.1-3.3-23.6-5.2-37.5-7.3zm-11.2 17.3h-6.6v-0.6h1.4c0.4 0 0.7-0.3 0.7-0.6v-7.2c0-0.4-0.4-0.6-0.9-0.6v-0.4h3.2v8.2c0 0.4 0.3 0.6 0.7 0.6h1.4v0.6zm2.4-2.8c0-1.2 0.8-2.1 2-2.7-0.8-0.4-1.3-1.1-1.3-1.9 0-1.2 1.3-2.3 2.9-2.3s2.9 1 2.9 2.3c0 0.8-0.5 1.5-1.3 1.9 1.1 0.5 2 1.5 2 2.7 0 1.5-1.6 2.9-3.6 2.9s-3.6-1.4-3.6-2.9zm13.1 15.7c-1.3 0-2.6 0.6-3.7 1.7-1 1.1-1.5 2.6-1.6 4h-0.1c0-1.5-0.6-2.9-1.6-4s-2.3-1.7-3.7-1.7v-0.2c1.3 0 2.7-0.6 3.7-1.7s1.5-2.6 1.6-4h0.1c0 1.5 0.6 2.9 1.6 4s2.3 1.7 3.7 1.7v0.2zm-0.6-12.9h-2.4l3.6-8.9h-2.9c-0.4 0-0.7 0.3-0.7 0.6h-0.4v-1.3h6.7l-3.9 9.6zm13.4-3.1c0 1.7-1.7 3.2-3.7 3.2s-3.6-1.4-3.6-3.2v-3.4c0-1.7 1.7-3.2 3.6-3.2 2 0 3.7 1.4 3.7 3.2v3.4zm-3.7-5.9c-0.7 0-1.3 0.6-1.3 1.4v5.7c0 0.7 0.7 1.4 1.3 1.4 0.7 0 1.4-0.6 1.4-1.4v-5.7c0-0.8-0.7-1.4-1.4-1.4z"/>
			<line class="st1" x1="15.4" x2="15" y1="49.7" y2="49.8"/>
	<path class="st0" d="m94.3 94.4"/>
		<path class="st0" d="m104.9 100.5c-3.3-2.5-7.4-4.4-11.4-5.8l-0.4-0.1-0.1-0.4c0-0.3-0.1-0.5-0.1-0.8v-30.5l-22.4-9-0.5-12.5v-1l36 15.5v45.5l-1.1-0.9zm-0.2-1.7v-42.1l-33.3-14.3 0.5 10.6 22.5 9v31.4 0.2c3.5 1.4 7.1 3 10.3 5.2zm-34.2-56.8l0.3-0.6-0.3 0.6z"/>
			<path class="st0" d="m52.5 3.5c-0.5 0-0.9 0.2-1.1 0.4 0 0 0-0.1-0.1-0.1 0.1 0.2 0.3 0.3 0.5 0.4 0.3-0.1 0.5-0.2 0.7-0.2s0.5 0.1 0.6 0.2c0.2-0.1 0.4-0.2 0.5-0.3-0.1-0.2-0.6-0.4-1.1-0.4"/>
			<path class="st0" d="m51.7 3.2c0.2-0.1 0.5-0.2 0.8-0.2s0.6 0.1 0.8 0.2c0.1-0.1 0.2-0.2 0.2-0.3-0.1-0.4-0.5-0.6-1.1-0.6-0.5 0-0.9 0.3-1.1 0.6v-0.2c0.1 0.2 0.2 0.4 0.4 0.5"/>
			<path class="st0" d="m52.1 1.9h0.3 0.3c0.1-0.1 0.1-0.2 0.1-0.3 0-0.3-0.2-0.5-0.4-0.5s-0.4 0.2-0.4 0.5c0 0.1 0.1 0.2 0.1 0.3"/>
	<path class="st0" d="m18.3 60.6l0.5-0.3 0.5-8.7 4.6 1.5 0.4-0.4-5.2-1.8-1.9 0.7 1 8.6 0.1 0.4zm36.7-44.7l2.1 1.1-4-13.1h-1.1l-3.8 13.2 2.1-1.2h4.7zm-1.9-11.5l3.2 11.5-1.2-0.7h-0.6l-1.6-10.9 0.2 0.1zm0.8 10.8h-2.5l1.2-10.9 1.3 10.9zm-5 0.8l3.1-11.6 0.1-0.1-1.6 10.9h-0.5l-1.1 0.8zm28.1 64.2c-0.3 0-0.6 0.4-0.6 0.8s0.3 0.8 0.6 0.8 0.6-0.4 0.6-0.8-0.2-0.8-0.6-0.8zm-46.6-5.4l2.4-0.7c0-2-1.1-3.4-1.1-3.4s-1.3 1.8-1.3 4.1zm1.7-1.8c0 0.6-0.2 1.1-0.5 1-0.3 0-0.5-0.5-0.5-1.1s0.2-1.1 0.5-1 0.5 0.6 0.5 1.1zm15.7 0.2c-0.5 0-0.8 0.4-0.8 1s0.4 1 0.8 1c0.5 0 0.8-0.4 0.8-1s-0.4-1-0.8-1zm-5.1-1.1c-0.5 0-0.9 0.5-0.9 1 0 0.6 0.4 1 0.9 1s0.9-0.5 0.9-1c0-0.6-0.4-1-0.9-1zm38 8.9c-0.3 0-0.6 0.4-0.6 0.8s0.3 0.8 0.6 0.8 0.6-0.4 0.6-0.8c0-0.5-0.3-0.8-0.6-0.8zm-25.4-61.5l2.2 1.6 0.1-2.2v-0.1l-3.1-1.7h-3.9l-2.7 1.7v2.5l2.3-1.7h5.1zm-26.8 63.4c-0.1 0-0.2 0-0.3-0.1 0.2 0 0.3 0.1 0.3 0.1zc0.6 0.1 1.1 0.2 1.8 0.3l-1.8-0.3zm50.2-20.5l-1.4-3.1 0.9-1.5-6.9-2.6-0.6-15.1 1-0.6-0.1-1.7-1.1-0.5-8.2-10.2v-1.1l1.2-0.1-2.5-3.1-2.2 0.6v-1l-1.2-0.7v0.5l-2.6-0.5-4.5-0.1-2.7 0.6v-0.3l-0.8 0.5v1.2l-2.6-0.5-2.5 3.3 1.2 0.1v2.5l-8.4 10.4v1.1l0.8 0.6v2.9l-5.5 2.3-3.9-1.3-1.1 0.5 4.9 1.7 5.3-2.5 0.7 1.2-1.2 15.7-6.1 2.5 1.6-15.7-0.2-1.2-0.3 1.2-1.6 15.6-13-3.3v-11h-0.1v30.3c2.2 0.6 6.6 1.6 13.2 2.8v-16.6l-13.1-3.4v-0.4l13.1 3.4v-0.5h-0.1l-13-3.4v-0.5l13.1 3.4 7.2-3h0.1l18.7 5.3v-0.1l2.3 0.6v-8.6s0.4-1.8 1.7-2.9c0 0 1.5 2.1 1.5 3.7v8.6l1.8 0.4v-8.6s0.3-1.5 1.6-2.7c0 0 1.4 1.9 1.4 3.4v8.6l1.6 0.4v-8.4s0-1.1 1.3-2.2c0 0 0.9 1.3 1.1 2.8v0.2 8.3l3.6 0.9v0.3l13.3 3.2-0.7 0.3-12.5-3.1v0.3l12.3 3.1-0.5 0.3-12.1-3-17.8-4.3-18.7-5.2v20.6c-0.9-0.1-1.8-0.3-2.7-0.4v-9l-2.5 0.7 0.1 8c3.1 0.5 6.7 1.1 10.8 1.7v-9.6l3.1 0.5v9.5l-2.1-0.4c1.4 0.2 2.8 0.4 4.2 0.6v-9.3l2.9 0.5v9.2l-2.3-0.3c2.5 0.3 5.2 0.7 8.1 1 1.6 0.2 3 0.4 4.5 0.5h-0.1v-8.8c0-3.2 3.6-5.3 3.6-5.3h0.1l0.1 0.1c0.2 0.1 3.9 3.4 3.9 6.7v8.5h-0.2v-8.4c0-2.9-3.2-6-3.7-6.4-0.5 0.3-3.4 2.2-3.4 5v8.9c0.5 0.1 1.1 0.1 1.6 0.2-0.3 0-0.6-0.1-0.8-0.1v-8.2s0-1.1 1.3-2.2c0 0 0.9 1.3 1.1 2.8v0.2 7.7c10.5 1.4 17.6 2.9 22.1 4l-0.2-15.3v-0.5l0.8-0.5v-0.6l-1.3-0.3-5.5-11.7 11.9 4v12.5l-5.8-1.4v0.4l5.8 1.4v0.5l-5.8-1.4v0.2l5.8 1.3v0.4l-5.8-1.3 0.1 12.1c1 0.2 1.8 0.5 2.5 0.7v-4.5l3 0.5c0 1.1 0 3.1 0.1 4.9-0.1 0-0.3-0.1-0.5-0.2 0.4 0.1 0.6 0.2 0.6 0.2l0.2 0.1v-26.7l-12.3-4.3zm-57.8 7.6s2.8 1.7 2.7 4.6l-5.4-1s-0.2-2.3 2.7-3.6zm-2.9 4.9l5.5 1v6.1c-1.8-0.4-4.4-0.9-5.5-1.2v-5.9zm37.2-52.7l2.9 1.5-2.4 1 0.6 0.7 2.6-0.9v5.3l0.8 0.4 0.1-5.2 0.9-0.3 1.1 1.3v5.3l1.1 0.5-0.4-0.5v-3.1l6.3 7.9-15.3-6.9 1.7-7zm-0.8 0l-1.7 6.5-1.7-6.5h3.4zm-11.3 7.3v2.1l-0.4 0.5 1-0.4v-5.4l1.3-1.6 1.4 0.2v5.6l0.6-0.3v-5.8l2.6 1.4 0.1-0.7-2.6-1.3 3.1-1.3 1.9 6.8-15 7.9 6-7.7zm-7.3 14.2v-3l-0.8-0.5v-1l17.3-8.9 0.4 1.1 0.5 33-4.1-15 0.1-0.3 0.2-0.4-0.1 0.3 0.3-0.1-0.3-8.7c0-0.5-0.8-2.6-1.4-2.8-0.5 0.5-1.1 2.4-1.1 3.4l0.3 6.2-2-0.7-0.2-4c0-0.5-0.8-2.6-1.4-2.8-0.5 0.5-1.1 2.4-1.1 3.4l0.1 2.5-1.6-0.6v-0.6c0-0.5-0.8-2.6-1.4-2.8-0.5 0.5-0.9 2.2-1 2.5l-1.5-0.6h-0.5l-0.7 0.4zm0.1 17.9l1.3-15.6 0.7-1.5 11.3 4.1-0.4 0.9 4.6 17.1-17.5-5zm23.6-11.5l-3.2-1.1v-8.8s0.3-2.1 1.7-2.9c0 0 1.5 2.1 1.5 3.7v9.1zm4.3 1.5l-2.9-1v-8.9s0.3-1.5 1.6-2.7c0 0 1.4 1.9 1.4 3.4v9.2zm3.9 1.4l-2.5-0.9v-9s0-1.1 1.3-2.2c0 0 0.9 1.3 1.1 2.8v0.2 9.1zm-14.5-19.5l-0.1-2.2 0.5-0.9 17.5 8v1.2l-0.8 0.5 0.1 0.8-17.2-7.4zm-12 40.8s0-2 1.6-3.2c0 0 1.1 1.2 1.4 3.5v0.2l-3-0.5zm5.1 1s0-1.9 1.5-3c0 0 1 1.1 1.4 3.3v0.2l-2.9-0.5zm15.9 0.7c0-0.6 0.4-1.1 1-1.1 0.5 0 1 0.5 1 1.1s-0.4 1.1-1 1.1c-0.6 0.1-1-0.4-1-1.1zm3.8 12c-0.7-0.1-1.5-0.2-2.5-0.3v-8.1s0-1.1 1.3-2.2c0 0 0.9 1.3 1.1 2.8v0.2 7.6zm11-8.4s1 0.8 1.2 2.6v0.2l-2.4-0.4c0.1-0.1 0.2-1.5 1.2-2.4zm1.2 10.5c-0.8-0.2-1.5-0.3-2.4-0.5v-7l2.4 0.4v7.1zm3.7 0.8c-0.7-0.2-1.5-0.3-2.2-0.5v-7l2.2 0.3v7.2zm-2.3-8.2s0.1-1.5 1.1-2.4c0 0 0.9 0.8 1.2 2.6v0.2l-2.3-0.4zm3.8-8.5l-11.3-2.8-0.9-15.4 6.1 2.2-0.6 0.9 6.7 15.1zm4.2 12.7c0.1-0.5 0.4-2.1 1.6-2.6 0 0 1.2 1.5 1.4 3.1l-3-0.5zm1.5-14.8l-2.6-0.8h-2l1.8 0.5 0.3 5.9 0.3 0.3-0.1-6.1 2.2 0.5 0.1-0.3zm-34.9-4.4l-18.7-5.3v0.6l18.7 5.2v-0.5zm19.2-4l2.2 7.7-0.1-7.1 3.1 0.8 0.2-0.1-3.4-1.2h-2zm-32.4-10.2l1.5 8.4 0.2 0.4 0.2-0.3 0.2-8.3 4.4 1.3 0.3-0.2-4.7-1.6-2.1 0.3z"/>
	<path class="st0" d="m3.9 54.6l-3.9 1.7v10.5c0 6 4.2 9.9 10.3 11.8 1.1 0.5 2.9 0.9 4.8 1.3v-1.3c-7.5-4.6-9.9-13.4-1.2-17.3l1.2-0.5v-0.1h0.1v-11l9.9-4.3 4.9 1.7-5-1.6-21.1 9.1zm19.9-1.5l-4.6-1.5-0.5 8.7-0.4 0.2 0.5-0.3 0.5-8.7 4.5 1.6 0.4-0.4-0.4 0.4zm2.3-8.1h0.1l3.7 1.2 5.4-2.5v-2.8l-9.2 4.1z"/>
	<path class="st0" d="m125.1 101v11.7h-1.3v-11.7h1.3z"/>
	<path class="st0" d="M130.2,101h1.3l6.7,9.5V101h1.2v11.7h-1.3l-6.7-9.4v9.4h-1.2V101z"/>
	<path class="st0" d="m148.5 100.8c0.4 0 0.8 0 1.3 0.1s0.9 0.3 1.4 0.6c0.4 0.3 0.8 0.7 1.1 1.3 0.3 0.5 0.5 1.3 0.6 2.2h-1.4c-0.1-0.7-0.3-1.2-0.5-1.5-0.2-0.4-0.5-0.7-0.7-0.9-0.3-0.2-0.6-0.3-0.9-0.4s-0.6-0.1-0.9-0.1c-0.4 0-0.7 0-1 0.1s-0.6 0.2-0.8 0.4l-0.6 0.6c-0.1 0.2-0.2 0.5-0.2 0.7 0 0.4 0.1 0.7 0.3 0.9s0.5 0.4 0.8 0.6 0.7 0.3 1.2 0.4c0.4 0.1 0.9 0.2 1.3 0.3s0.9 0.3 1.3 0.4l1.2 0.6c0.3 0.2 0.6 0.6 0.8 1s0.3 0.9 0.3 1.4-0.1 1-0.3 1.4-0.5 0.8-1 1.1c-0.4 0.3-0.9 0.5-1.5 0.7s-1.2 0.2-2 0.2-1.4-0.1-2-0.4c-0.6-0.2-1-0.6-1.4-1s-0.6-0.9-0.8-1.4-0.3-1.1-0.3-1.7h1.3c0 0.5 0.1 1 0.2 1.4 0.2 0.4 0.4 0.7 0.6 1 0.3 0.3 0.6 0.5 1 0.6s0.8 0.2 1.2 0.2c0.5 0 0.9 0 1.4-0.1 0.4-0.1 0.8-0.2 1.1-0.4s0.5-0.4 0.7-0.7 0.2-0.6 0.2-1c0-0.6-0.2-1-0.5-1.3s-0.8-0.5-1.3-0.7-1.1-0.3-1.7-0.5c-0.6-0.1-1.2-0.3-1.7-0.5s-1-0.5-1.3-0.9c-0.4-0.4-0.5-1-0.5-1.7 0-0.5 0.1-1 0.3-1.4s0.5-0.7 0.9-1 0.8-0.5 1.3-0.6h1.5z"/>
	<path class="st0" d="m165.8 101v1.3h-3.9v10.4h-1.3v-10.4h-3.9v-1.3h9.1z"/>
	<path class="st0" d="m171.6 101v11.7h-1.3v-11.7h1.3z"/>
	<path class="st0" d="M185,101v1.3h-3.9v10.4h-1.3v-10.4h-3.9V101H185z"/>
	<path class="st0" d="m190.3 101v8.1c0 0.4 0.1 0.8 0.3 1.1s0.4 0.6 0.7 0.8 0.7 0.4 1 0.5c0.4 0.1 0.8 0.2 1.2 0.2s0.9-0.1 1.3-0.2 0.8-0.3 1.1-0.5 0.5-0.5 0.7-0.8 0.3-0.7 0.3-1.1v-8.1h1.3v8.4c0 0.6-0.1 1.1-0.4 1.5s-0.6 0.8-1.1 1.1c-0.4 0.3-0.9 0.5-1.5 0.7-0.6 0.1-1.1 0.2-1.6 0.2s-1.1-0.1-1.6-0.2-1-0.4-1.5-0.7c-0.4-0.3-0.8-0.7-1.1-1.1s-0.4-1-0.4-1.5v-8.4h1.3z"/>
	<path class="st0" d="m211.4 101v1.3h-3.9v10.4h-1.3v-10.4h-3.9v-1.3h9.1z"/>
	<path class="st0" d="m224.1 101v1.3h-7.3v3.5h6.9v1.3h-6.9v4.3h7.3v1.3h-8.6v-11.7h8.6z"/>
	<path class="st0" d="m266.9 101v1.3h-3.9v10.4h-1.3v-10.4h-3.9v-1.3h9.1z"/>
	<path class="st0" d="M279.6,101v1.3h-7.3v3.5h6.9v1.3h-6.9v4.3h7.3v1.3H271V101H279.6z"/>
	<path class="st0" d="m289.3 100.8c0.7 0 1.3 0.1 1.9 0.2s1.1 0.4 1.5 0.7 0.8 0.8 1.1 1.3 0.5 1.2 0.6 1.9h-1.4c-0.1-0.5-0.3-1-0.5-1.4s-0.5-0.7-0.9-0.9-0.7-0.4-1.1-0.5-0.8-0.1-1.2-0.1c-0.5 0-1 0.1-1.5 0.3s-0.9 0.4-1.3 0.8-0.7 0.9-1 1.5c-0.2 0.6-0.4 1.3-0.4 2.2s0.1 1.6 0.4 2.2c0.2 0.6 0.6 1.1 1 1.5s0.8 0.7 1.3 0.8c0.5 0.2 1 0.3 1.5 0.3 0.4 0 0.8-0.1 1.3-0.2 0.4-0.1 0.8-0.3 1.1-0.6 0.4-0.3 0.6-0.6 0.9-1 0.2-0.4 0.4-0.9 0.5-1.4h1.3c-0.1 0.8-0.3 1.4-0.6 2s-0.7 1-1.2 1.4-1 0.6-1.6 0.8-1.2 0.3-1.7 0.3c-0.8 0-1.6-0.1-2.3-0.4s-1.3-0.6-1.7-1.1c-0.5-0.5-0.9-1.1-1.1-1.9-0.3-0.8-0.4-1.6-0.4-2.7 0-1 0.1-1.9 0.4-2.7s0.6-1.4 1.1-1.9 1.1-0.9 1.7-1.1c0.7-0.2 1.4-0.3 2.3-0.3z"/>
	<path class="st0" d="M300.4,101v5h6.5v-5h1.3v11.7h-1.3v-5.4h-6.5v5.4H299V101H300.4z"/>
	<path class="st0" d="M313.1,101h1.3l6.7,9.5V101h1.2v11.7H321l-6.7-9.4v9.4h-1.2V101z"/>
	<path class="st0" d="m332.4 100.8c0.8 0 1.6 0.1 2.2 0.4 0.7 0.2 1.2 0.6 1.7 1.1s0.8 1.1 1.1 1.9 0.4 1.7 0.4 2.7-0.1 1.9-0.4 2.7-0.6 1.4-1.1 1.9-1 0.9-1.7 1.1c-0.7 0.3-1.4 0.4-2.3 0.4s-1.6-0.1-2.3-0.4-1.3-0.6-1.8-1.1-0.9-1.1-1.1-1.9c-0.3-0.8-0.4-1.6-0.4-2.7 0-1 0.1-1.9 0.4-2.7s0.6-1.4 1.1-1.9 1.1-0.9 1.8-1.1c0.8-0.3 1.5-0.4 2.4-0.4zm0 1.3c-0.5 0-1 0.1-1.5 0.3s-1 0.4-1.4 0.8-0.7 0.9-1 1.5-0.4 1.3-0.4 2.2 0.1 1.6 0.4 2.2 0.6 1.1 1 1.5 0.8 0.7 1.4 0.8c0.5 0.2 1 0.3 1.5 0.3s1-0.1 1.5-0.3 0.9-0.4 1.3-0.8 0.7-0.9 0.9-1.5 0.3-1.4 0.3-2.2c0-0.9-0.1-1.6-0.4-2.2-0.2-0.6-0.6-1.1-0.9-1.5-0.4-0.4-0.8-0.6-1.3-0.8-0.4-0.3-0.9-0.3-1.4-0.3z"/>
	<path class="st0" d="m343.6 101v10.4h6v1.3h-7.3v-11.7h1.3z"/>
	<path class="st0" d="m358.8 100.8c0.8 0 1.6 0.1 2.2 0.4 0.7 0.2 1.2 0.6 1.7 1.1s0.8 1.1 1.1 1.9 0.4 1.7 0.4 2.7-0.1 1.9-0.4 2.7-0.6 1.4-1.1 1.9-1 0.9-1.7 1.1c-0.7 0.3-1.4 0.4-2.3 0.4-0.8 0-1.6-0.1-2.3-0.4s-1.3-0.6-1.8-1.1-0.9-1.1-1.1-1.9c-0.3-0.8-0.4-1.6-0.4-2.7 0-1 0.1-1.9 0.4-2.7s0.6-1.4 1.1-1.9 1.1-0.9 1.8-1.1c0.8-0.3 1.6-0.4 2.4-0.4zm0 1.3c-0.5 0-1 0.1-1.5 0.3s-1 0.4-1.4 0.8-0.7 0.9-1 1.5c-0.2 0.6-0.4 1.3-0.4 2.2s0.1 1.6 0.4 2.2 0.6 1.1 1 1.5 0.8 0.7 1.4 0.8c0.5 0.2 1 0.3 1.5 0.3s1-0.1 1.5-0.3 0.9-0.4 1.3-0.8 0.7-0.9 0.9-1.5 0.3-1.4 0.3-2.2c0-0.9-0.1-1.6-0.4-2.2-0.2-0.6-0.6-1.1-0.9-1.5-0.4-0.4-0.8-0.6-1.3-0.8-0.4-0.3-0.9-0.3-1.4-0.3z"/>
	<path class="st0" d="m368.4 106.8c0-1 0.1-1.9 0.4-2.7s0.6-1.4 1.1-1.9 1.1-0.9 1.7-1.1c0.7-0.3 1.4-0.4 2.3-0.4 0.7 0 1.3 0.1 1.9 0.2s1.1 0.4 1.5 0.7 0.8 0.8 1.1 1.3 0.5 1.2 0.6 1.9h-1.3c-0.1-0.5-0.3-1-0.5-1.4s-0.5-0.7-0.9-0.9-0.7-0.4-1.1-0.5-0.8-0.1-1.2-0.1c-0.5 0-1 0.1-1.5 0.3s-0.9 0.4-1.3 0.8-0.7 0.9-1 1.5c-0.2 0.6-0.4 1.3-0.4 2.2s0.2 1.6 0.5 2.2 0.7 1.1 1.1 1.5c0.5 0.4 1 0.7 1.5 0.8 0.6 0.2 1.1 0.3 1.6 0.3h0.7c0.3 0 0.6 0 0.9-0.1 0.3 0 0.6-0.1 0.9-0.1s0.5-0.1 0.7-0.1v-3.4h-2.7v-1.3h4v5.7c-0.3 0.1-0.7 0.2-1.1 0.3s-0.9 0.1-1.3 0.2c-0.4 0-0.8 0.1-1.2 0.1h-0.9c-0.8 0-1.6-0.1-2.4-0.4-0.7-0.2-1.4-0.6-1.9-1.1s-1-1.1-1.3-1.9c-0.3-0.6-0.5-1.5-0.5-2.6z"/>
	<path class="st0" d="m387.8 106.8l3.5-5.8h1.6l-4.4 7v4.7h-1.3v-4.7l-4.5-7h1.6l3.5 5.8z"/>
	<polygon class="st0" points="123.4 121.3 123.4 119.6 392.8 119.6 392.8 121.3"/>
	<path class="st0" d="m237.1 111.7c-1.9 0-3-1.2-3-3.2 0-3.5 2.1-6.1 4.9-6.1 2.1 0 3 1.3 3 3.2 0.1 3.4-2 6.1-4.9 6.1m1.7-8.2c-2 0-3.1 2.2-3.1 5.1 0 1.4 0.6 2 1.7 2 2 0 3.1-2.4 3.1-5.1 0-1.5-0.8-2-1.7-2"/>
	<path class="st0" d="m249.8 100.1c-0.4-0.3-0.8-0.4-1.3-0.4-0.8 0-1.3 0.6-1.5 1.6l-0.3 1.4h2.5l-0.6 1h-2l-1.6 8c-0.3 1.6-0.7 2.6-1.4 3.4l-1.1-0.6c0.5-0.8 0.9-1.6 1.2-2.9l1.5-7.9h-0.9l0.2-1h0.9l0.2-1.2c0.2-1.2 0.7-1.9 1.3-2.4 0.5-0.3 1-0.4 1.7-0.4 0.8 0 1.3 0.1 1.7 0.4l-0.5 1z"/>
	<path class="st0" d="m159.6 58.5l-1.7 0.9-4.9-5.4c-0.8-0.6-1.6-1.2-2.4-1.7-0.7-0.5-1.5-1-2.2-1.4-0.9-0.5-1.8-0.8-2.7-1.1s-2-0.5-3.1-0.5c-0.9 0-1.9 0-2.8 0.2s-1.8 0.4-2.7 0.7c-0.9 0.4-1.6 0.8-2.3 1.4-0.7 0.5-1.2 1.2-1.5 1.9-0.4 1-0.6 1.8-0.6 2.5s0.1 1.4 0.4 2c0.2 0.6 0.6 1.1 1 1.5s0.9 0.8 1.3 1.1c1 0.7 2 1.3 3.2 1.7 1.1 0.4 2.2 0.8 3.4 1.1 1.3 0.3 2.7 0.6 4 0.9 1.4 0.3 2.7 0.6 4 0.9 1.2 0.3 2.4 0.7 3.5 1 1.1 0.4 2.1 0.8 3.1 1.3s1.8 1.1 2.6 1.7c0.8 0.7 1.5 1.4 2 2.4 0.5 0.8 0.9 1.7 1.1 2.8 0.2 1 0.3 2 0.3 3s-0.1 1.9-0.3 2.9c-0.2 0.9-0.5 1.7-0.8 2.4-0.5 1.1-1.2 2-1.9 2.9s-1.5 1.6-2.4 2.3c-1 0.7-2 1.4-3.1 1.9s-2.1 0.9-3.2 1.2c-0.9 0.3-1.9 0.5-2.8 0.6s-1.8 0.2-2.7 0.2-1.8-0.1-2.7-0.2-1.8-0.2-2.8-0.3c-0.7-0.1-1.5-0.3-2.3-0.6s-1.6-0.6-2.4-1c-0.6-0.3-1.2-0.6-1.7-0.9-0.6-0.3-1.1-0.6-1.7-0.9l-0.9 3h-2.7l-4-14.6 2.3-0.4c0.6 1 1.2 2 1.9 3s1.3 1.9 2 2.8 1.5 1.8 2.4 2.6c0.8 0.8 1.8 1.5 2.8 2.2s2.1 1.2 3.1 1.5c1 0.4 2.1 0.6 3.1 0.7s2 0.2 3 0.1c1 0 1.9-0.1 2.8-0.3 1-0.2 2-0.5 2.8-0.9 0.9-0.5 1.6-1 2.3-1.5 0.7-0.6 1.3-1.3 1.8-2s0.8-1.5 1-2.2c0.3-1 0.4-2 0.4-2.9s-0.1-1.6-0.4-2.3-0.6-1.3-1.1-1.8-1.1-1-1.7-1.3c-1.1-0.5-2.2-1-3.4-1.4-1.1-0.4-2.3-0.7-3.4-1-1.2-0.3-2.4-0.5-3.6-0.8-1.2-0.2-2.3-0.5-3.5-0.8s-2.5-0.7-3.7-1.1c-1.2-0.5-2.3-0.9-3.4-1.5-1-0.6-1.9-1.2-2.7-1.9s-1.4-1.3-1.8-2c-0.5-0.9-0.8-1.8-1-2.7s-0.3-1.9-0.3-2.8c0-1.2 0.3-2.4 0.7-3.5s1-2.1 1.7-3c0.8-1 1.8-1.8 2.8-2.4s2.1-1.1 3.3-1.5c1.3-0.4 2.7-0.7 4.1-0.7 1.4-0.1 2.8-0.1 4.2 0 0.9 0.1 1.8 0.2 2.6 0.4s1.6 0.4 2.4 0.7 1.5 0.6 2.3 0.9 1.6 0.7 2.4 1.1l0.7-2.1h2.3l4.2 11z"/>
	<path class="st0" d="m198.1 53.7l3 9.5-1.9 0.6c-0.4-0.7-0.8-1.3-1.3-2s-1-1.3-1.6-1.9-1.2-1.1-1.8-1.6c-0.7-0.5-1.4-0.9-2.1-1.3-0.7-0.3-1.4-0.6-2.2-0.8s-1.6-0.3-2.5-0.3c-0.4 0-0.8 0-1.1 0.1s-0.6 0.2-0.8 0.3c-0.2 0.2-0.4 0.4-0.5 0.6-0.1 0.3-0.2 0.6-0.2 1v29.5l5.8 1.5v1.7h-16.7v-1.6l5.4-1.5v-29.5c0-0.4-0.1-0.7-0.2-1s-0.2-0.5-0.4-0.7-0.4-0.3-0.6-0.4-0.5-0.1-0.7-0.1c-0.8 0-1.5 0.1-2.3 0.2-0.7 0.1-1.5 0.3-2.2 0.6-1 0.4-1.9 0.9-2.8 1.5s-1.7 1.3-2.4 2c-0.5 0.6-1 1.2-1.4 1.9-0.4 0.6-0.8 1.3-1 2l-2-0.6 3.1-9.6h31.4z"/>
	<path class="st0" d="m234.7 53.8l3.5 9.8-1.6 0.5c-0.5-0.7-1.1-1.4-1.7-2s-1.3-1.2-2-1.8c-0.7-0.5-1.4-1-2.2-1.5s-1.6-0.9-2.4-1.2c-1-0.4-1.9-0.8-3-1-1-0.3-2.1-0.4-3.1-0.5-0.8-0.1-1.7-0.1-2.5-0.1s-1.6 0.1-2.5 0.3c-0.5 0.1-0.9 0.3-1.3 0.5s-0.7 0.5-0.9 0.9c-0.2 0.3-0.4 0.7-0.6 1.1-0.1 0.4-0.2 0.8-0.2 1.2v9.7h8.9l1.6-6.8h2v16.1h-1.8l-1.8-6.8h-8.8v11.7c0 0.4 0.1 0.8 0.3 1.3l0.6 1.2c0.3 0.4 0.6 0.7 1 1s0.8 0.4 1.2 0.5c0.8 0.1 1.7 0.2 2.5 0.3s1.7 0.1 2.5 0c1.1-0.1 2.1-0.2 3.2-0.5 1.1-0.2 2.1-0.6 3.1-1.1 0.9-0.4 1.9-1 2.9-1.6 1-0.7 1.9-1.4 2.9-2.3 0.7-0.6 1.3-1.3 2-2.1 0.7-0.7 1.3-1.5 1.9-2.4l1.6 0.8-4.8 11.6h-31.2v-1.6l4.6-1.2v-31l-4.8-1.3v-1.6h30.9z"/>
	<polygon class="st0" points="255.7 53.5 255.7 55.4 250.5 56.8 261 84.6 271.9 56.8 266.1 55.2 266.1 53.7 280.3 53.7 280.3 55.1 275.5 56.4 261.5 90.6 258.1 90.6 244.3 56.4 239.9 55.2 239.9 53.5"/>
	<path class="st0" d="m314.2 53.8l3.5 9.8-1.6 0.5c-0.5-0.7-1.1-1.4-1.7-2s-1.3-1.2-2-1.8c-0.7-0.5-1.4-1-2.2-1.5s-1.6-0.9-2.4-1.2c-1-0.4-1.9-0.8-3-1-1-0.3-2.1-0.4-3.1-0.5-0.8-0.1-1.7-0.1-2.5-0.1s-1.6 0.1-2.5 0.3c-0.5 0.1-0.9 0.3-1.3 0.5s-0.7 0.5-0.9 0.9c-0.3 0.3-0.4 0.7-0.6 1.1-0.1 0.4-0.2 0.8-0.2 1.2v9.7h8.9l1.6-6.8h2v16.1h-1.8l-1.8-6.8h-8.8v11.7c0 0.4 0.1 0.8 0.3 1.3l0.6 1.2c0.3 0.4 0.6 0.7 1 1s0.8 0.4 1.2 0.5c0.8 0.1 1.7 0.2 2.5 0.3s1.7 0.1 2.5 0c1.1-0.1 2.1-0.2 3.2-0.5 1-0.2 2.1-0.6 3.1-1.1 0.9-0.4 1.9-1 2.9-1.6 1-0.7 1.9-1.4 2.9-2.3 0.7-0.6 1.3-1.3 2-2.1 0.6-0.7 1.3-1.5 1.9-2.4l1.8 0.7-4.9 11.6h-31.1v-1.6l4.6-1.2v-31l-4.8-1.3v-1.6h30.7z"/>
	<polygon class="st0" points="333.8 53.8 351.8 83 351.8 56.8 346.4 55.4 346.4 53.9 359.6 53.9 359.6 55.5 354.8 56.8 354.8 90.7 350 90.7 329.9 58 329.9 87.6 335.3 89 335.3 90.6 322.1 90.6 322.1 89 326.9 87.8 326.9 56.8 322.1 55.5 322.1 53.8"/>
	<path class="st0" d="m389.3 63.9l-1.4 0.7-4-4.4c-0.7-0.5-1.3-1-1.9-1.4l-1.8-1.2c-0.7-0.4-1.4-0.7-2.2-0.9s-1.6-0.4-2.5-0.4c-0.8 0-1.5 0-2.3 0.2-0.8 0.1-1.5 0.3-2.2 0.6s-1.3 0.7-1.9 1.1c-0.5 0.4-1 1-1.2 1.6-0.3 0.8-0.5 1.5-0.5 2.1s0.1 1.1 0.3 1.6 0.5 0.9 0.8 1.3c0.4 0.4 0.7 0.7 1.1 0.9 0.8 0.6 1.7 1 2.6 1.4 0.9 0.3 1.8 0.6 2.8 0.9 1.1 0.3 2.2 0.5 3.3 0.7s2.2 0.5 3.3 0.7c1 0.3 1.9 0.5 2.8 0.8s1.7 0.6 2.5 1 1.5 0.9 2.1 1.4 1.2 1.2 1.7 1.9c0.4 0.7 0.7 1.4 0.9 2.2s0.3 1.6 0.3 2.4-0.1 1.6-0.3 2.3-0.4 1.4-0.6 2c-0.4 0.9-1 1.7-1.5 2.4-0.6 0.7-1.2 1.3-1.9 1.9-0.8 0.6-1.6 1.1-2.5 1.5s-1.7 0.7-2.6 1c-0.8 0.2-1.5 0.4-2.3 0.5-0.7 0.1-1.5 0.1-2.2 0.1s-1.4-0.1-2.2-0.2c-0.7-0.1-1.5-0.2-2.3-0.3-0.6-0.1-1.2-0.3-1.9-0.5-0.6-0.2-1.3-0.5-1.9-0.8-0.5-0.2-0.9-0.5-1.4-0.8s-0.9-0.5-1.4-0.8l-0.7 2.4h-2.2l-3.1-11.8 1.9-0.3 1.5 2.4c0.5 0.8 1.1 1.5 1.7 2.3 0.6 0.7 1.2 1.4 1.9 2.1s1.4 1.2 2.3 1.8c0.8 0.5 1.7 1 2.5 1.3s1.7 0.5 2.5 0.6 1.6 0.1 2.4 0.1 1.5-0.1 2.3-0.3c0.8-0.1 1.6-0.4 2.3-0.8s1.3-0.8 1.9-1.3 1-1 1.4-1.6 0.7-1.2 0.8-1.8c0.2-0.8 0.3-1.6 0.3-2.3s-0.1-1.3-0.3-1.9-0.5-1-0.9-1.5c-0.4-0.4-0.8-0.8-1.3-1.1-0.9-0.4-1.8-0.8-2.7-1.1s-1.9-0.6-2.8-0.8c-1-0.2-1.9-0.4-2.9-0.6-0.9-0.2-1.9-0.4-2.8-0.6-1-0.2-2-0.5-3-0.9s-1.9-0.8-2.7-1.2c-0.8-0.5-1.6-1-2.2-1.5s-1.1-1.1-1.4-1.7c-0.4-0.7-0.7-1.4-0.8-2.2-0.2-0.8-0.2-1.5-0.2-2.3 0-1 0.2-2 0.6-2.9 0.3-0.9 0.8-1.7 1.4-2.4 0.7-0.8 1.4-1.5 2.3-2 0.8-0.5 1.7-0.9 2.7-1.2 1.1-0.3 2.2-0.5 3.3-0.6h3.4c0.7 0.1 1.4 0.2 2.1 0.3s1.3 0.3 1.9 0.5 1.2 0.5 1.9 0.7c0.6 0.3 1.3 0.6 1.9 0.9l0.6-1.7h1.9l2.7 9.5z"/>
	<path class="st0" d="m131.9 128.4v1.2h-3.7v10h-1.3v-10h-3.7v-1.2h8.7z"/>
	<path class="st0" d="m136.3 128.4v4.8h6.2v-4.8h1.3v11.2h-1.3v-5.2h-6.2v5.2h-1.3v-11.2h1.3z"/>
	<path class="st0" d="M156,128.4v1.2h-7v3.4h6.6v1.3H149v4.1h7v1.2h-8.3v-11.2H156z"/>
	<path class="st0" d="m166.9 128.4v11.2h-1.3v-11.2h1.3z"/>
	<path class="st0" d="m171.1 128.4h1.2l6.4 9.1v-9.1h1.1v11.2h-1.2l-6.4-9v9h-1.1v-11.2z"/>
	<path class="st0" d="m183.8 128.4h1.2l6.4 9.1v-9.1h1.1v11.2h-1.2l-6.4-9v9h-1.1v-11.2z"/>
	<path class="st0" d="m201.4 128.2c0.8 0 1.5 0.1 2.1 0.4 0.6 0.2 1.2 0.6 1.6 1.1 0.5 0.5 0.8 1.1 1.1 1.8s0.4 1.6 0.4 2.6-0.1 1.8-0.4 2.6c-0.2 0.7-0.6 1.3-1 1.8s-1 0.8-1.6 1.1c-0.6 0.2-1.4 0.4-2.2 0.4s-1.6-0.1-2.2-0.4c-0.7-0.2-1.2-0.6-1.7-1.1s-0.8-1.1-1.1-1.8-0.4-1.6-0.4-2.5c0-1 0.1-1.8 0.4-2.5s0.6-1.3 1.1-1.8 1-0.8 1.7-1.1c0.7-0.5 1.4-0.6 2.2-0.6zm0 1.2c-0.5 0-1 0.1-1.4 0.2-0.5 0.2-0.9 0.4-1.3 0.8s-0.7 0.8-0.9 1.4-0.4 1.3-0.4 2.1 0.1 1.6 0.4 2.1c0.2 0.6 0.6 1.1 0.9 1.4 0.4 0.4 0.8 0.6 1.3 0.8s1 0.2 1.4 0.2c0.5 0 1-0.1 1.4-0.2 0.5-0.2 0.9-0.4 1.3-0.8s0.7-0.8 0.9-1.4 0.3-1.3 0.3-2.1-0.1-1.6-0.3-2.1c-0.2-0.6-0.5-1.1-0.9-1.4-0.4-0.4-0.8-0.6-1.3-0.8-0.4-0.1-0.9-0.2-1.4-0.2z"/>
	<path class="st0" d="m213.8 138.4h0.5l3.2-10h1.4l-3.8 11.2h-2.2l-3.8-11.2h1.5l3.2 10z"/>
	<path class="st0" d="m227.4 136.9h-5.5l-0.9 2.7h-1.4l3.9-11.2h2.2l4 11.2h-1.5l-0.8-2.7zm-5-1.3h4.7l-2.1-5.9h-0.5l-2.1 5.9z"/>
	<path class="st0" d="m239.4 128.4v1.2h-3.7v10h-1.3v-10h-3.7v-1.2h8.7z"/>
	<path class="st0" d="m244.1 128.4v11.2h-1.3v-11.2h1.3z"/>
	<path class="st0" d="m253.2 128.2c0.8 0 1.5 0.1 2.1 0.4 0.6 0.2 1.2 0.6 1.6 1.1 0.5 0.5 0.8 1.1 1.1 1.8s0.4 1.6 0.4 2.6-0.1 1.8-0.4 2.6c-0.2 0.7-0.6 1.3-1 1.8s-1 0.8-1.6 1.1c-0.6 0.2-1.4 0.4-2.2 0.4s-1.6-0.1-2.2-0.4c-0.7-0.2-1.2-0.6-1.7-1.1s-0.8-1.1-1.1-1.8-0.4-1.6-0.4-2.5c0-1 0.1-1.8 0.4-2.5s0.6-1.3 1.1-1.8 1-0.8 1.7-1.1c0.6-0.5 1.4-0.6 2.2-0.6zm0 1.2c-0.5 0-1 0.1-1.4 0.2-0.5 0.2-0.9 0.4-1.3 0.8s-0.7 0.8-0.9 1.4-0.4 1.3-0.4 2.1 0.1 1.6 0.4 2.1c0.2 0.6 0.6 1.1 0.9 1.4 0.4 0.4 0.8 0.6 1.3 0.8s1 0.2 1.4 0.2c0.5 0 1-0.1 1.4-0.2 0.5-0.2 0.9-0.4 1.3-0.8s0.7-0.8 0.9-1.4 0.3-1.3 0.3-2.1-0.1-1.6-0.3-2.1c-0.2-0.6-0.5-1.1-0.9-1.4-0.4-0.4-0.8-0.6-1.3-0.8-0.5-0.1-1-0.2-1.4-0.2z"/>
	<path class="st0" d="m261.8 128.4h1.2l6.4 9.1v-9.1h1.1v11.2h-1.2l-6.4-9v9h-1.1v-11.2z"/>
	<path class="st0" d="m281.6 128.4v7.8c0 0.4 0.1 0.7 0.3 1s0.4 0.5 0.7 0.8c0.3 0.2 0.6 0.4 1 0.5s0.8 0.1 1.2 0.1 0.8-0.1 1.2-0.2 0.7-0.3 1-0.5 0.5-0.5 0.7-0.8 0.3-0.6 0.3-1v-7.8h1.3v8.1c0 0.6-0.1 1.1-0.4 1.5s-0.6 0.8-1 1.1-0.9 0.5-1.4 0.6-1 0.2-1.6 0.2c-0.5 0-1-0.1-1.6-0.2-0.5-0.1-1-0.4-1.4-0.6-0.4-0.3-0.8-0.6-1-1.1-0.3-0.4-0.4-0.9-0.4-1.5v-8.1h1.1z"/>
	<path class="st0" d="M293,128.4h1.2l6.4,9.1v-9.1h1.1v11.2h-1.2l-6.4-9v9H293V128.4z"/>
	<path class="st0" d="m307.4 128.4v11.2h-1.3v-11.2h1.3z"/>
	<path class="st0" d="m315.2 138.4h0.5l3.2-10h1.4l-3.8 11.2h-2.2l-3.8-11.2h1.5l3.2 10z"/>
	<path class="st0" d="m331.7 128.4v1.2h-7v3.4h6.6v1.3h-6.6v4.1h7v1.2h-8.3v-11.2h8.3z"/>
	<path class="st0" d="m339.7 134.4h-3.2v5.2h-1.3v-11.2h1.1 1.5 1.6 1.2c1.2 0 2.1 0.2 2.7 0.7 0.7 0.4 1 1.1 1 2.1 0 0.5-0.1 0.9-0.3 1.3s-0.4 0.7-0.7 1-0.6 0.5-1 0.7-0.8 0.3-1.3 0.3l4 5.3h-1.6l-3.7-5.4zm1-1.1c0.3 0 0.6 0 0.9-0.1s0.5-0.2 0.7-0.4 0.4-0.4 0.5-0.6c0.1-0.3 0.2-0.5 0.2-0.9 0-0.6-0.2-1-0.6-1.3s-1-0.4-1.7-0.4h-0.5s-0.5 0-0.7 0h-0.9-0.9-0.7-0.5v3.6h4.2z"/>
	<path class="st0" d="m351.9 128.2c0.4 0 0.8 0 1.2 0.1 0.5 0.1 0.9 0.3 1.3 0.6s0.8 0.7 1.1 1.2 0.5 1.2 0.6 2.1h-1.3c-0.1-0.6-0.3-1.1-0.5-1.5s-0.4-0.6-0.7-0.8-0.6-0.3-0.9-0.4-0.6-0.1-0.9-0.1-0.7 0-1 0.1-0.6 0.2-0.8 0.4-0.4 0.4-0.5 0.6-0.2 0.5-0.2 0.7c0 0.3 0.1 0.6 0.3 0.8s0.5 0.4 0.8 0.5 0.7 0.3 1.1 0.4 0.8 0.2 1.3 0.3c0.4 0.1 0.9 0.2 1.3 0.4s0.8 0.3 1.1 0.6c0.3 0.2 0.6 0.5 0.8 0.9s0.3 0.8 0.3 1.4c0 0.5-0.1 1-0.3 1.4s-0.5 0.8-0.9 1c-0.4 0.3-0.9 0.5-1.4 0.7-0.6 0.2-1.2 0.2-1.9 0.2s-1.4-0.1-1.9-0.3-1-0.5-1.3-0.9-0.6-0.8-0.7-1.4c-0.2-0.5-0.2-1.1-0.2-1.6h1.3c0 0.5 0.1 1 0.2 1.3 0.1 0.4 0.3 0.7 0.6 0.9 0.3 0.3 0.6 0.4 0.9 0.6 0.3 0.1 0.7 0.2 1.2 0.2s0.9 0 1.3-0.1 0.7-0.2 1-0.4 0.5-0.4 0.7-0.6c0.2-0.3 0.2-0.6 0.2-0.9 0-0.5-0.2-0.9-0.5-1.2s-0.8-0.5-1.3-0.7-1.1-0.3-1.7-0.4-1.1-0.3-1.7-0.5c-0.5-0.2-0.9-0.5-1.3-0.9-0.3-0.4-0.5-0.9-0.5-1.6 0-0.5 0.1-1 0.3-1.4s0.5-0.7 0.9-0.9c0.4-0.3 0.8-0.4 1.2-0.6 0.5-0.1 1-0.2 1.4-0.2z"/>
	<path class="st0" d="m361.4 128.4v11.2h-1.3v-11.2h1.3z"/>
	<path class="st0" d="m373.5 128.4v1.2h-3.7v10h-1.3v-10h-3.7v-1.2h8.7z"/>
	<path class="st0" d="m380.4 133.9l3.3-5.5h1.5l-4.2 6.7v4.5h-1.3v-4.5l-4.3-6.7h1.6l3.4 5.5z"/>
	<path class="st0" d="m390.4 127.8c0.9 0 1.7 0.3 2.2 0.8 0.5 0.6 0.8 1.4 0.8 2.6 0 1.1-0.3 2-0.8 2.6s-1.2 0.9-2.2 0.9c-0.5 0-0.9-0.1-1.2-0.2-0.4-0.1-0.7-0.3-1-0.6s-0.5-0.6-0.6-1.1c-0.1-0.4-0.2-0.9-0.2-1.5s0.1-1.1 0.2-1.5 0.3-0.8 0.6-1.1 0.6-0.5 1-0.6c0.3-0.3 0.7-0.3 1.2-0.3zm0 0.5c-0.3 0-0.6 0-0.9 0.1s-0.6 0.3-0.8 0.5-0.4 0.5-0.6 0.9c-0.1 0.4-0.2 0.8-0.2 1.3s0.1 0.9 0.2 1.3 0.3 0.6 0.6 0.9c0.2 0.2 0.5 0.4 0.8 0.5s0.6 0.2 0.9 0.2 0.6-0.1 0.9-0.2 0.5-0.3 0.8-0.5c0.2-0.2 0.4-0.5 0.5-0.9s0.2-0.8 0.2-1.3-0.1-1-0.2-1.3c-0.1-0.4-0.3-0.6-0.5-0.9-0.2-0.2-0.5-0.4-0.8-0.5-0.3 0-0.6-0.1-0.9-0.1zm-0.4 3h-0.3v1.9h-0.5v-4c0.2 0 0.4 0 0.5-0.1h0.6c0.4 0 0.7 0.1 0.9 0.2 0.2 0.2 0.3 0.4 0.3 0.7s-0.1 0.6-0.3 0.8-0.4 0.3-0.7 0.4l1.2 1.9h-0.6l-1.1-1.8zm0.4-0.5c0.4 0 0.6-0.2 0.6-0.7 0-0.2 0-0.3-0.1-0.4s-0.3-0.1-0.5-0.1h-0.6v1.2h0.6z"/>
</svg>
